<svg xmlns="http://www.w3.org/2000/svg" width="251.059" height="75.541" viewBox="0 0 251.059 75.541">
  <path id="path2564" d="M150.134,310.94a132.577,132.577,0,0,0,65.933,17.466,130.863,130.863,0,0,0,50.313-10.271c2.461-1.041,4.544,1.609,2.13,3.408-14.625,10.744-35.735,16.471-53.958,16.471a97.71,97.71,0,0,1-65.885-25.086c-1.373-1.23-.189-2.935,1.467-1.988Zm121.358-2.887c4.686-.054,8.52.852,9.277,1.846,1.609,1.941-.427,15.667-8.236,22.2-1.183.994-2.367.474-1.8-.852,1.751-4.4,5.68-14.247,3.834-16.613-1.893-2.367-12.354-1.136-17.039-.568-1.42.189-1.657-1.088-.378-1.988,4.213-2.935,9.7-3.976,14.341-4.023Zm-33.984-22.482c-5.632,0-11.549,1.183-11.549,7.81,0,3.36,1.7,5.632,4.686,5.632a6.313,6.313,0,0,0,5.4-3.55c1.514-2.7,1.467-5.206,1.467-8.236Zm-101.857,0c-5.632,0-11.549,1.183-11.549,7.81,0,3.36,1.7,5.632,4.686,5.632a6.313,6.313,0,0,0,5.4-3.55c1.515-2.7,1.467-5.206,1.467-8.236Zm172.713-14.578c-5.727,0-6.106,7.762-6.106,12.638s-.054,15.24,6.059,15.24c6.011,0,6.3-8.378,6.3-13.49a37.423,37.423,0,0,0-1.136-10.555c-.9-2.745-2.651-3.834-5.112-3.834Zm-49.083-7.384H284.84a1.405,1.405,0,0,1,1.467,1.42V269.9c0,.805-.71,1.893-1.893,3.6L271.161,292.34c4.923-.094,10.082.616,14.578,3.123a2.555,2.555,0,0,1,1.326,2.225v6.058c0,.852-.9,1.846-1.846,1.325a29.323,29.323,0,0,0-26.979.054c-.9.474-1.846-.474-1.846-1.325v-5.775a7.309,7.309,0,0,1,.947-3.929l15.335-21.962H259.33a1.405,1.405,0,0,1-1.467-1.42v-5.68a1.394,1.394,0,0,1,1.42-1.42Zm49.036-.757c11.5,0,17.749,9.892,17.749,22.435,0,12.164-6.863,21.82-17.749,21.82-11.312,0-17.513-9.892-17.513-22.2,0-12.4,6.248-22.057,17.513-22.057Zm44.4,0a10.232,10.232,0,0,1,9.04,4.686c2.035,3.171,2.035,8.567,2.035,12.4v25.086a1.482,1.482,0,0,1-1.467,1.23h-7.81a1.471,1.471,0,0,1-1.372-1.23V283.4c0-4.355.521-10.744-4.875-10.744a5.151,5.151,0,0,0-4.5,3.171,17.854,17.854,0,0,0-1.23,7.573v21.441a1.447,1.447,0,0,1-1.515,1.42h-7.715a1.46,1.46,0,0,1-1.42-1.42V264.983a1.452,1.452,0,0,1,1.467-1.279H340.6a1.483,1.483,0,0,1,1.372,1.088V270.9h.142c2.177-5.443,5.207-8.047,10.6-8.047Zm-176.642,0c4.828,0,7.9,2.367,10.082,7.384a11.49,11.49,0,0,1,19.737-3.029c2.461,3.36,1.941,8.236,1.941,12.5v25.133a1.447,1.447,0,0,1-1.515,1.42h-7.762a1.452,1.452,0,0,1-1.373-1.42v-21.11c0-1.7.142-5.869-.236-7.479-.567-2.65-2.319-3.408-4.544-3.408a5.169,5.169,0,0,0-4.686,3.266c-.757,1.988-.71,5.349-.71,7.62v21.11a1.447,1.447,0,0,1-1.515,1.42h-7.762a1.452,1.452,0,0,1-1.373-1.42v-21.11c0-4.449.71-10.981-4.78-10.981-5.585,0-5.4,6.39-5.4,10.981v21.11a1.435,1.435,0,0,1-1.467,1.42H156.9a1.477,1.477,0,0,1-1.373-1.325V265.124a1.447,1.447,0,0,1,1.515-1.42h7.242a1.485,1.485,0,0,1,1.42,1.325v5.207h.142c1.893-5.017,5.443-7.384,10.224-7.384Zm57.224-.378c3.787,0,8.709.994,11.691,3.834,3.786,3.55,3.408,8.236,3.408,13.395v12.069c0,3.645,1.514,5.254,2.934,7.194.521.71.616,1.562,0,2.035-1.609,1.373-4.449,3.787-5.964,5.159h-.054a1.645,1.645,0,0,1-1.846.189,19.373,19.373,0,0,1-4.449-5.159c-4.26,4.307-7.242,5.633-12.78,5.633-6.579,0-11.643-4.023-11.643-12.117a13.207,13.207,0,0,1,8.283-12.685c4.213-1.846,10.129-2.177,14.625-2.65V278.33c0-1.846.142-4.023-.947-5.633a5.227,5.227,0,0,0-4.354-1.988c-2.982,0-5.632,1.515-6.248,4.639-.142.71-.663,1.42-1.373,1.42l-7.526-.805a1.36,1.36,0,0,1-1.137-1.61c1.7-9.135,9.94-11.88,17.371-11.88Zm-101.857,0c3.786,0,8.709.994,11.691,3.834,3.786,3.55,3.408,8.236,3.408,13.395v12.069c0,3.645,1.515,5.254,2.935,7.194.521.71.616,1.562-.054,2.035-1.562,1.373-4.4,3.787-5.916,5.159h-.054a1.645,1.645,0,0,1-1.846.189,19.372,19.372,0,0,1-4.449-5.159c-4.26,4.307-7.289,5.633-12.78,5.633-6.579,0-11.643-4.023-11.643-12.117a13.207,13.207,0,0,1,8.283-12.685c4.213-1.846,10.129-2.177,14.625-2.65V278.33c0-1.846.142-4.023-.946-5.633a5.227,5.227,0,0,0-4.354-1.988c-2.982,0-5.632,1.515-6.248,4.639-.142.71-.663,1.42-1.373,1.42l-7.526-.805a1.36,1.36,0,0,1-1.136-1.61c1.7-9.135,9.94-11.88,17.371-11.88Z" transform="translate(-112.73 -262.474)" fill="#4b4142" fill-rule="evenodd"/>
</svg>
