<svg xmlns="http://www.w3.org/2000/svg" xmlns:xlink="http://www.w3.org/1999/xlink" width="2045" height="1280" viewBox="0 0 2045 1280">
  <defs>
    <clipPath id="clip-path">
      <rect id="Rectangle_3" data-name="Rectangle 3" width="2045" height="1280" fill="none" stroke="rgba(255,255,255,0.53)" stroke-width="1"/>
    </clipPath>
  </defs>
  <g id="OBJECTS" transform="translate(0 -0.318)">
    <g id="Group_4" data-name="Group 4" transform="translate(0 0.318)">
      <g id="Group_3" data-name="Group 3" transform="translate(0 0)" clip-path="url(#clip-path)">
        <g id="Group_1" data-name="Group 1" transform="translate(-325.03 -58.664)" opacity="0.5">
          <path id="Path_1" data-name="Path 1" d="M1694.769,1214.931q21.677-27.136,43.349-54.275c49.529-62.007,84.979-130.609,74.594-210.305-11.527-88.471-76.132-166.9-164.937-198.438-75.341-26.756-155.626-48.48-195.648-121.128-30.3-55-47.923-115.378-107.818-151.35-59.832-35.936-138.226-27.868-205.978-7.907S1005.351,522.148,934.641,528.2c-58.96,5.042-119.508-7.94-170.31-36.515-118.407-66.6-177.1-209.373-304.757-258.621-71.9-27.74-154.866-20.023-227.677,5.542-80.615,28.3-146.018,91.633-226.5,113.984-42.736,11.87-145.029,40.911-98.458,98.86" transform="translate(143.909 394.765)" fill="none" stroke="rgba(255,255,255,0.53)" stroke-miterlimit="10" stroke-width="1"/>
          <path id="Path_2" data-name="Path 2" d="M1719.416,1215.335q19.964-26.595,40.021-53.555c8.493-11.388,16.523-23.02,23.891-34.9,32.286-52.3,51.905-109.444,42.09-174.085-6.776-44.38-26.556-86.439-55.746-121.681a263.847,263.847,0,0,0-110.758-78.781c-75.058-27.87-155.278-50.645-196.577-122.406-8.305-14.384-15.76-29.1-23.357-43.609-21.13-40.35-43.262-79.079-87.721-104.8-60.51-34.926-139.158-26.664-207.406-7.079-33.191,9.521-65.8,21.439-98.708,31.736-34.785,10.886-69.9,19.953-106.354,22.549-59.161,4.212-119.707-9.513-170.413-38.7a316.463,316.463,0,0,1-29.983-19.672C690.488,434.99,652.148,387.8,611.868,343.4c-42.932-47.316-88.064-91.448-148.319-115.042-36.74-14.386-76.363-19.674-116.1-18.106-38.3,1.506-76.709,9.38-112.738,21.591-10.393,3.523-20.541,7.614-30.509,12.124-44.284,20-84.766,48.382-127.257,70.962-22.852,12.149-46.2,22.726-70.863,29.643-43.317,12.183-144.505,41.452-100.161,99.493" transform="translate(143.69 386.086)" fill="none" stroke="rgba(255,255,255,0.53)" stroke-miterlimit="10" stroke-width="1"/>
          <path id="Path_3" data-name="Path 3" d="M1744.076,1215.754c12.17-17.366,24.411-35.042,36.693-52.833,7.812-11.291,15.179-22.843,21.9-34.634,29.358-51.961,46.634-108.681,35.464-173.03-7.749-44.219-28.045-86.329-57.392-122.065a271.37,271.37,0,0,0-110.682-80.424c-74.771-28.987-154.926-52.812-197.507-123.687-8.591-14.217-16.373-28.729-24.313-43-22.075-39.689-45.159-77.482-90.019-102.47-61.192-33.919-140.092-25.459-208.84-6.251-33.444,9.339-66.319,20.948-99.482,30.837-35.042,10.458-70.372,18.985-106.951,21.068-59.363,3.377-119.9-11.089-170.514-40.891a318.831,318.831,0,0,1-29.914-20.046c-47.779-35.974-85.835-83.706-126.134-128.527-42.935-47.731-88.405-92.122-148.85-116.139-36.86-14.645-76.619-20.289-116.545-19.1-38.492,1.145-77.137,8.647-113.463,20.522-10.475,3.426-20.713,7.422-30.773,11.832-44.78,19.569-85.609,47.78-128.574,70.1-23.095,12.006-46.628,22.523-71.408,29.538-43.9,12.5-143.985,41.992-101.865,100.129" transform="translate(143.457 377.389)" fill="none" stroke="rgba(255,255,255,0.53)" stroke-miterlimit="10" stroke-width="1"/>
          <path id="Path_4" data-name="Path 4" d="M1768.75,1216.191c11.031-17,22.168-34.47,33.365-52.11,7.13-11.194,13.874-22.649,19.919-34.368,26.594-51.549,41.36-107.92,28.835-171.977-8.719-44.052-29.536-86.219-59.041-122.444a279.2,279.2,0,0,0-110.6-82.068c-74.491-30.1-154.577-54.977-198.436-124.968-8.881-14.053-16.989-28.36-25.273-42.39-23.024-39.026-47.054-75.889-92.319-100.139-61.871-32.913-141.025-24.258-210.268-5.424-33.7,9.159-66.842,20.456-100.257,29.938-35.3,10.028-70.849,18.017-107.551,19.587-59.562,2.542-120.1-12.662-170.615-43.081a320.6,320.6,0,0,1-29.846-20.415c-47.648-36.592-85.423-84.866-125.744-130.1-42.935-48.149-88.741-92.793-149.379-117.233-36.982-14.909-76.878-20.909-116.987-20.087-38.683.784-77.562,7.914-114.185,19.454-10.559,3.331-20.887,7.225-31.043,11.54-45.277,19.144-86.448,47.178-129.885,69.237C56.1,311,32.378,321.463,7.484,328.575-36.994,341.388-135.977,371.11-96.084,429.339" transform="translate(143.211 368.673)" fill="none" stroke="rgba(255,255,255,0.53)" stroke-miterlimit="10" stroke-width="1"/>
          <path id="Path_5" data-name="Path 5" d="M1793.438,1216.647c9.892-16.638,19.922-33.9,30.037-51.39,6.446-11.094,12.541-22.462,17.935-34.1,23.724-51.2,36.085-107.156,22.206-170.924-9.693-43.886-31.027-86.109-60.687-122.826A287.468,287.468,0,0,0,1692.407,753.7c-74.207-31.219-154.051-57.247-199.366-126.246-9.134-13.909-17.608-27.991-26.229-41.785-23.973-38.362-48.9-74.375-94.62-97.8-62.484-32.023-141.96-23.054-211.7-4.594-33.96,8.975-67.366,19.961-101.031,29.036-35.554,9.6-71.323,17.048-108.145,18.106-59.766,1.709-120.293-14.24-170.721-45.272a322.893,322.893,0,0,1-29.775-20.784C703.3,427.142,665.81,378.33,625.467,332.673c-42.938-48.567-89.078-93.47-149.911-118.332-37.1-15.167-77.134-21.524-117.428-21.076-38.877.423-77.988,7.179-114.907,18.388-10.644,3.231-21.061,7.03-31.31,11.248-45.775,18.716-87.29,46.573-131.2,68.374-23.58,11.719-47.5,22.121-72.5,29.331-45.064,13.126-142.944,43.076-105.275,101.4" transform="translate(142.95 359.94)" fill="none" stroke="rgba(255,255,255,0.53)" stroke-miterlimit="10" stroke-width="1"/>
          <path id="Path_6" data-name="Path 6" d="M1818.141,1217.118c8.752-16.274,17.679-33.325,26.709-50.668,5.765-11,11.211-22.282,15.951-33.832,20.857-50.844,30.811-106.4,15.575-169.868-10.663-43.722-32.512-86-62.334-123.208-29.1-36.215-66.82-66.166-110.442-85.355-73.845-32.487-153.664-59.438-200.292-127.528-9.417-13.751-18.224-27.619-27.189-41.175-24.921-37.7-50.791-72.8-96.92-95.473-63.152-31.042-142.892-21.852-213.13-3.766-34.216,8.793-67.892,19.469-101.808,28.137-35.807,9.17-71.8,16.08-108.742,16.625-59.968.874-120.49-15.813-170.822-47.462a325.329,325.329,0,0,1-29.707-21.152c-47.392-37.829-84.6-87.185-124.96-133.259-42.94-48.982-89.419-94.144-150.442-119.429-37.222-15.426-77.391-22.142-117.87-22.062-39.067.056-78.413,6.444-115.632,17.317-10.723,3.136-21.233,6.836-31.574,10.955C168.237,234.206,126.379,261.886,82,283.426,58.173,295,34.067,305.347,8.95,312.656c-45.644,13.438-142.42,43.617-106.978,102.035" transform="translate(142.675 351.19)" fill="none" stroke="rgba(255,255,255,0.53)" stroke-miterlimit="10" stroke-width="1"/>
          <path id="Path_7" data-name="Path 7" d="M1842.861,1217.614c7.61-15.913,15.433-32.756,23.378-49.948,5.086-10.9,9.884-22.1,13.967-33.566,17.99-50.5,25.676-105.665,8.948-168.815-11.543-43.578-34-85.889-63.98-123.587-29.192-36.6-66.837-67.1-110.364-87-73.547-33.627-153.282-61.628-201.222-128.809-9.7-13.592-18.843-27.248-28.148-40.568-25.867-37.032-52.677-71.218-99.218-93.139-63.822-30.058-143.827-20.648-214.564-2.939-34.472,8.614-68.412,18.977-102.579,27.237-36.067,8.742-72.277,15.109-109.341,15.144-60.167.041-120.686-17.389-170.923-49.651a328.284,328.284,0,0,1-29.639-21.524C711.916,422,674.991,372.106,634.609,325.614c-42.943-49.4-89.757-94.817-150.974-120.525-37.342-15.685-77.647-22.756-118.312-23.051-39.258-.3-78.838,5.708-116.354,16.249-10.807,3.041-21.408,6.641-31.842,10.663C170.355,226.813,128.153,254.319,83.3,275.6c-24.065,11.435-48.362,21.719-73.591,29.126-46.225,13.753-141.9,44.16-108.682,102.67" transform="translate(142.383 342.419)" fill="none" stroke="rgba(255,255,255,0.53)" stroke-miterlimit="10" stroke-width="1"/>
          <path id="Path_8" data-name="Path 8" d="M1867.6,1218.126c6.47-15.549,13.151-32.2,20.05-49.225,4.38-10.812,8.553-21.924,11.982-33.3,15.122-50.166,20.418-104.909,2.32-167.76-12.5-43.417-35.494-85.781-65.629-123.969-29.285-37-66.85-68.031-110.284-88.645-73.245-34.765-152.9-63.821-202.151-130.087-9.982-13.433-19.456-26.881-29.1-39.961-26.816-36.371-54.569-69.64-101.519-90.808-64.493-29.077-144.759-19.446-215.992-2.111-34.728,8.432-68.938,18.483-103.356,26.338-36.32,8.314-72.752,14.14-109.935,13.661-60.371-.792-120.882-18.962-171.027-51.839a330.371,330.371,0,0,1-29.571-21.9c-47.133-39.064-83.774-89.5-124.177-136.41-42.941-49.815-90.092-95.494-151.5-121.624-37.465-15.946-77.906-23.374-118.756-24.04-39.446-.666-79.26,4.976-117.074,15.18-10.892,2.944-21.582,6.446-32.111,10.371-47.269,17.437-89.814,44.767-135.143,65.786C60.308,279.084,35.8,289.258,10.48,296.814-36.359,310.79-130.9,341.514-99.906,400.119" transform="translate(142.072 333.628)" fill="none" stroke="rgba(255,255,255,0.53)" stroke-miterlimit="10" stroke-width="1"/>
          <path id="Path_9" data-name="Path 9" d="M1892.355,1218.657c5.332-15.185,10.9-31.626,16.722-48.505,3.693-10.709,7.223-21.744,10-33.03,12.252-49.835,15.158-104.154-4.309-166.707-13.465-43.258-36.982-85.668-67.276-124.35-29.383-37.386-66.867-68.961-110.205-90.288-72.948-35.9-152.527-66.009-203.081-131.368-10.265-13.274-20.075-26.51-30.062-39.351-27.764-35.708-56.463-68.062-103.819-88.476-65.169-28.091-145.694-18.242-217.426-1.284-34.984,8.25-69.462,17.991-104.13,25.439-36.576,7.883-73.226,13.172-110.532,12.18-60.57-1.627-121.078-20.538-171.127-54.029a332.53,332.53,0,0,1-29.5-22.264c-47-39.684-83.363-90.664-123.785-137.988-42.943-50.23-90.433-96.168-152.034-122.721-37.585-16.205-78.162-23.989-119.2-25.026-39.637-1.03-79.686,4.24-117.8,14.109-10.974,2.849-21.746,6.272-32.376,10.079-47.73,17.1-90.657,44.165-136.457,64.926-24.553,11.15-49.251,21.26-74.684,28.918C-36.151,303.2-129.582,334.164-100.818,392.861" transform="translate(141.744 324.82)" fill="none" stroke="rgba(255,255,255,0.53)" stroke-miterlimit="10" stroke-width="1"/>
          <path id="Path_10" data-name="Path 10" d="M1917.128,1219.208c4.195-14.822,8.654-31.055,13.4-47.783,3.009-10.612,5.89-21.57,8.013-32.764,9.382-49.51,9.9-103.4-10.941-165.654-14.424-43.1-38.471-85.558-68.922-124.73-29.476-37.775-66.88-69.891-110.123-91.933-72.654-37.032-152.157-68.2-204.01-132.649-10.551-13.113-20.691-26.138-31.021-38.741-28.71-35.047-58.355-66.481-106.12-86.145-65.842-27.107-146.626-17.04-218.854-.454-35.243,8.068-69.985,17.5-104.9,24.537-36.832,7.456-73.7,12.2-111.129,10.7-60.775-2.459-121.274-22.113-171.231-56.217a336.153,336.153,0,0,1-29.435-22.636c-46.876-40.3-82.951-91.822-123.392-139.567-42.946-50.645-90.771-96.841-152.565-123.818-37.7-16.464-78.418-24.606-119.639-26.015-39.828-1.391-80.111,3.5-118.521,13.041-11.058,2.752-21.917,6.077-32.643,9.79-48.226,16.682-91.5,43.563-137.773,64.06-24.8,11.009-49.684,21.058-75.229,28.818-48.01,14.586-140.335,45.782-113.8,104.574" transform="translate(141.396 315.99)" fill="none" stroke="rgba(255,255,255,0.53)" stroke-miterlimit="10" stroke-width="1"/>
          <path id="Path_11" data-name="Path 11" d="M1941.926,1219.782c3.056-14.46,6.406-30.484,10.069-47.063,2.322-10.515,4.56-21.4,6.027-32.5,6.509-49.192,4.639-102.647-17.567-164.6-15.389-42.938-39.961-85.45-70.568-125.114-29.571-38.165-66.9-70.818-110.047-93.575-72.354-38.162-151.786-70.39-204.937-133.927-10.837-12.956-21.309-25.772-31.981-38.137-29.658-34.381-60.246-64.9-108.417-83.811-66.521-26.118-147.561-15.836-220.288.374-35.5,7.886-70.508,17-105.678,23.638-37.089,7.025-74.177,11.235-111.726,9.218C915.835,531,855.341,510.6,805.48,475.883a338.808,338.808,0,0,1-29.367-23c-46.746-40.919-82.54-92.983-123-141.145-42.949-51.06-91.109-97.513-153.1-124.914-37.827-16.723-78.674-25.221-120.081-27-40.021-1.752-80.536,2.772-119.244,11.973-11.143,2.657-22.092,5.885-32.913,9.5-48.719,16.261-92.336,42.961-139.084,63.2-25.038,10.866-50.12,20.85-75.777,28.713-48.594,14.891-139.815,46.325-115.5,105.209" transform="translate(141.026 307.141)" fill="none" stroke="rgba(255,255,255,0.53)" stroke-miterlimit="10" stroke-width="1"/>
          <path id="Path_12" data-name="Path 12" d="M1966.745,1220.373c1.913-14.1,4.154-29.91,6.738-46.34,1.638-10.415,3.227-21.224,4.045-32.231,3.628-48.882-.624-101.891-24.2-163.545-16.354-42.776-41.45-85.338-72.217-125.493-29.664-38.557-66.91-71.746-109.965-95.22-72.059-39.289-151.421-72.576-205.866-135.208-11.124-12.8-21.926-25.4-32.94-37.527-30.6-33.717-62.141-63.314-110.718-81.479-67.2-25.129-148.493-14.635-221.716,1.2-35.756,7.707-71.032,16.513-106.455,22.738-37.342,6.6-74.654,10.266-112.323,7.737-61.176-4.13-121.664-25.265-171.435-60.6a341.9,341.9,0,0,1-29.3-23.374c-46.618-41.539-82.128-94.143-122.61-142.721-42.949-51.477-91.447-98.189-153.626-126.011-37.947-16.987-78.933-25.841-120.522-28-40.212-2.114-80.964,2.039-119.969,10.907-11.224,2.557-22.263,5.69-33.177,9.2-49.218,15.844-93.178,42.359-140.4,62.335C64.815,247.478,39.539,257.4,13.776,265.364c-49.182,15.2-139.294,46.866-117.2,105.847" transform="translate(140.635 298.272)" fill="none" stroke="rgba(255,255,255,0.53)" stroke-miterlimit="10" stroke-width="1"/>
          <path id="Path_13" data-name="Path 13" d="M1991.59,1220.984c.774-13.735,1.905-29.336,3.41-45.621.954-10.315,1.894-21.05,2.061-31.962.741-48.577-5.89-101.136-30.825-162.49-17.319-42.618-42.94-85.23-73.864-125.875-29.759-38.946-66.93-72.671-109.889-96.865-71.759-40.417-151.058-74.764-206.793-136.49-11.41-12.634-22.544-25.031-33.9-36.917-31.555-33.056-64.04-61.731-113.018-79.148-67.878-24.137-149.428-13.43-223.15,2.029-36.009,7.525-71.555,16.021-107.226,21.839-37.6,6.17-75.131,9.3-112.92,6.254-61.38-4.96-121.863-26.838-171.539-62.786a344.154,344.154,0,0,1-29.225-23.743c-46.492-42.156-81.716-95.3-122.22-144.3-42.952-51.895-91.785-98.863-154.157-127.107-38.067-17.245-79.19-26.456-120.966-28.982-40.4-2.478-81.387,1.3-120.688,9.836-11.309,2.462-22.438,5.5-33.444,8.911-49.714,15.421-94.02,41.757-141.714,61.474C66,239.626,40.531,249.487,14.656,257.55c-49.766,15.508-138.773,47.409-118.908,106.483" transform="translate(140.218 289.384)" fill="none" stroke="rgba(255,255,255,0.53)" stroke-miterlimit="10" stroke-width="1"/>
          <path id="Path_14" data-name="Path 14" d="M2016.46,1221.615c-.365-13.371-.344-28.759.082-44.9.27-10.215.556-20.881.074-31.7-2.151-48.275-11.156-100.382-37.451-161.437-18.286-42.456-44.429-85.12-75.51-126.257-29.854-39.336-66.946-73.593-109.81-98.507-71.468-41.539-150.7-76.949-207.725-137.771-11.7-12.475-23.158-24.66-34.854-36.31-32.5-32.39-65.935-60.142-115.319-76.814-68.557-23.146-150.36-12.226-224.578,2.857-36.268,7.343-72.081,15.526-108,20.94-37.854,5.739-75.605,8.327-113.517,4.773-61.579-5.8-122.057-28.413-171.64-64.974a347.014,347.014,0,0,1-29.157-24.114c-46.361-42.776-81.3-96.462-121.828-145.877C624.27,249.222,575.1,202,512.536,173.328c-38.19-17.5-79.446-27.074-121.408-29.971-40.591-2.839-81.812.569-121.411,8.767-11.393,2.365-22.612,5.3-33.714,8.619-50.21,15-94.86,41.155-143.028,60.611-25.766,10.44-51.423,20.24-77.412,28.4-50.349,15.818-138.25,47.949-120.612,107.118" transform="translate(139.775 280.474)" fill="none" stroke="rgba(255,255,255,0.53)" stroke-miterlimit="10" stroke-width="1"/>
          <path id="Path_15" data-name="Path 15" d="M2041.36,1222.27c-1.5-13.01-2.589-28.186-3.246-44.178-.414-10.115-.782-20.712-1.911-31.429-5.051-47.978-16.425-99.626-44.083-160.384-19.252-42.295-45.917-85.007-77.156-126.636-29.947-39.727-66.962-74.518-109.731-100.152-71.17-42.661-150.341-79.132-208.652-139.049-11.985-12.316-23.776-24.291-35.813-35.7-33.45-31.729-67.832-58.554-117.616-74.482-69.241-22.149-151.3-11.025-226.012,3.687-36.522,7.161-72.6,15.032-108.777,20.038-38.111,5.311-76.08,7.358-114.114,3.292C932.468,530.645,872,507.286,822.508,470.11a349.411,349.411,0,0,1-29.089-24.486C747.186,402.233,712.526,348,671.984,298.172c-42.957-52.725-92.464-100.211-155.22-129.3-38.31-17.763-79.7-27.688-121.849-30.96-40.782-3.2-82.237-.167-122.133,7.7-11.478,2.27-22.787,5.109-33.981,8.327-50.709,14.581-95.7,40.553-144.342,59.75-26.009,10.294-51.859,20.035-77.96,28.3-50.932,16.126-137.727,48.49-122.316,107.751" transform="translate(139.303 271.544)" fill="none" stroke="rgba(255,255,255,0.53)" stroke-miterlimit="10" stroke-width="1"/>
          <path id="Path_16" data-name="Path 16" d="M2066.291,1222.943c-2.644-12.647-4.838-27.609-6.574-43.458-1.1-10.012-2.121-20.54-3.9-31.16-7.962-47.683-21.694-98.871-50.712-159.328-20.222-42.136-47.408-84.9-78.8-127.018-30.042-40.117-66.981-75.44-109.652-101.8-70.879-43.781-149.987-81.313-209.582-140.33C1594.8,607.7,1582.681,595.93,1570.3,584.76c-34.4-31.065-69.731-56.965-119.917-72.151-69.922-21.152-152.224-9.82-227.44,4.515-36.781,6.979-73.128,14.54-109.551,19.139-38.367,4.881-76.557,6.39-114.711,1.811C936.7,530.61,876.23,506.509,826.838,468.718a352.324,352.324,0,0,1-29.021-24.855c-46.105-44.011-80.482-98.781-121.045-149.028-42.954-53.143-92.8-100.887-155.749-130.4-38.43-18.022-79.961-28.306-122.291-31.949-40.973-3.561-82.662-.9-122.858,6.631-11.56,2.175-22.959,4.917-34.246,8.037C190.42,161.31,145.084,187.1,95.97,206.038c-26.251,10.153-52.292,19.836-78.5,28.2-51.516,16.438-137.209,49.03-124.022,108.386" transform="translate(138.8 262.593)" fill="none" stroke="rgba(255,255,255,0.53)" stroke-miterlimit="10" stroke-width="1"/>
          <path id="Path_17" data-name="Path 17" d="M2091.254,1223.635a373.466,373.466,0,0,1-9.9-42.735c-1.782-9.91-3.464-20.371-5.879-30.894-10.881-47.388-26.965-98.115-57.341-158.275-21.192-41.974-48.9-84.789-80.452-127.4-30.135-40.506-67-76.36-109.57-103.439-70.588-44.9-149.638-83.493-210.511-141.611-12.563-11.99-25.011-23.551-37.729-34.483-35.347-30.4-71.631-55.377-122.218-69.817-70.606-20.158-153.16-8.621-228.874,5.339-37.037,6.8-73.651,14.048-110.325,18.239-38.623,4.453-77.034,5.421-115.308.331-62.184-8.3-122.645-33.14-171.945-71.544a355.773,355.773,0,0,1-28.952-25.226c-45.974-44.629-80.07-99.941-120.653-150.607-42.957-53.558-93.137-101.561-156.28-131.5C486.763,141.737,445.1,131.1,402.58,127.084c-41.163-3.925-83.085-1.637-123.578,5.56-11.644,2.078-23.133,4.722-34.515,7.745-51.7,13.733-97.384,39.348-146.97,58.023-26.5,10.01-52.729,19.631-79.051,28.093-52.1,16.748-136.685,49.574-125.725,109.022" transform="translate(138.264 253.622)" fill="none" stroke="rgba(255,255,255,0.53)" stroke-miterlimit="10" stroke-width="1"/>
          <path id="Path_18" data-name="Path 18" d="M2116.256,1224.35c-4.925-11.919-9.327-26.456-13.233-42.013-2.461-9.81-4.805-20.2-7.864-30.627a811.421,811.421,0,0,0-63.967-157.222c-22.165-41.813-50.387-84.677-82.1-127.779-30.233-40.9-67.019-77.283-109.494-105.084-70.3-46.018-149.286-85.671-211.438-142.89-12.852-11.832-25.627-23.182-38.688-33.878-36.293-29.738-73.531-53.783-124.518-67.483-71.291-19.157-154.092-7.417-230.3,6.167-37.293,6.618-74.174,13.556-111.1,17.34-38.877,4.025-77.508,4.453-115.9-1.153C945.262,530.6,884.806,505.016,835.6,466a358.736,358.736,0,0,1-28.884-25.6c-45.846-45.249-79.658-101.1-120.26-152.185-42.96-53.973-93.478-102.232-156.812-132.593-38.672-18.542-80.473-29.538-123.177-33.925-41.354-4.286-83.51-2.37-124.3,4.494-11.726,1.981-23.3,4.525-34.78,7.451-52.2,13.307-98.226,38.746-148.286,57.16-26.736,9.869-53.162,19.431-79.6,27.991-52.682,17.061-136.165,50.114-127.429,109.66" transform="translate(137.69 244.629)" fill="none" stroke="rgba(255,255,255,0.53)" stroke-miterlimit="10" stroke-width="1"/>
          <path id="Path_19" data-name="Path 19" d="M2141.294,1225.086c-6.062-11.555-11.567-25.882-16.558-41.291-3.143-9.71-6.152-20.033-9.848-30.36a1011.777,1011.777,0,0,0-70.6-156.166c-23.136-41.652-51.878-84.569-83.747-128.16-30.326-41.288-67.038-78.2-109.412-106.731-70.007-47.129-148.943-87.846-212.37-144.168-13.141-11.668-26.243-22.813-39.645-33.269-37.238-29.075-75.431-52.192-126.816-65.151-71.978-18.155-155.027-6.216-231.736,6.995-37.549,6.436-74.7,13.064-111.873,16.441-39.136,3.595-77.985,3.484-116.5-2.634C949.6,530.627,889.154,504.3,840.039,464.669A362.208,362.208,0,0,1,811.226,438.7c-45.718-45.866-79.247-102.26-119.868-153.763C648.4,230.554,597.542,182.036,534.014,151.252c-38.792-18.8-80.73-30.153-123.618-34.913-41.545-4.65-83.935-3.1-125.025,3.425-11.81,1.883-23.479,4.33-35.047,7.158-52.7,12.885-99.065,38.144-149.6,56.3-26.982,9.728-53.6,19.231-80.141,27.891C-32.685,228.484-115.061,261.765-108.552,321.4" transform="translate(137.076 235.615)" fill="none" stroke="rgba(255,255,255,0.53)" stroke-miterlimit="10" stroke-width="1"/>
          <path id="Path_20" data-name="Path 20" d="M2166.38,1225.844c-7.2-11.194-13.811-25.308-19.887-40.573-3.824-9.608-7.5-19.861-11.832-30.092a1325.9,1325.9,0,0,0-77.227-155.113c-24.106-41.49-53.364-84.459-85.391-128.542-30.421-41.677-67.06-79.117-109.336-108.373-69.718-48.244-148.6-90.019-213.3-145.449-13.43-11.506-26.859-22.441-40.6-32.661-38.187-28.411-77.331-50.6-129.116-62.817-72.662-17.151-155.959-5.011-233.167,7.822-37.8,6.254-75.221,12.572-112.647,15.542-39.389,3.167-78.459,2.513-117.1-4.115-62.789-10.8-123.234-37.865-172.253-78.113a364.768,364.768,0,0,1-28.745-26.336C770.192,390.54,736.944,333.606,696.3,281.688,653.339,226.883,602.147,178.106,538.429,146.9c-38.912-19.062-80.989-30.771-124.06-35.9-41.736-5.009-84.36-3.838-125.747,2.357-11.895,1.788-23.654,4.138-35.317,6.866-53.2,12.459-99.9,37.542-150.914,55.436-27.222,9.585-54.029,19.029-80.686,27.786-53.849,17.689-135.124,51.2-130.839,110.928" transform="translate(136.418 226.581)" fill="none" stroke="rgba(255,255,255,0.53)" stroke-miterlimit="10" stroke-width="1"/>
          <path id="Path_21" data-name="Path 21" d="M2191.515,1226.622c-8.341-10.83-16.054-24.732-23.215-39.85-4.505-9.508-8.85-19.69-13.816-29.825-22.642-46.192-48.065-95.086-83.856-154.06-25.082-41.326-54.854-84.346-87.039-128.921-30.514-42.067-67.079-80.037-109.254-110.018-69.432-49.356-148.256-92.191-214.226-146.728-13.721-11.345-27.478-22.072-41.561-32.054-39.136-27.747-79.233-49-131.417-60.485-73.349-16.146-156.894-3.81-234.6,8.652-38.062,6.072-75.744,12.075-113.422,14.64-39.648,2.739-78.936,1.545-117.7-5.6-62.994-11.632-123.43-39.441-172.357-80.3a368.409,368.409,0,0,1-28.677-26.707c-45.459-47.1-78.421-104.579-119.086-156.914C658.33,223.233,606.8,174.2,542.891,142.571c-39.035-19.323-81.245-31.388-124.5-36.891-41.927-5.375-84.785-4.573-126.47,1.286-11.979,1.691-23.828,3.94-35.584,6.577-53.7,12.032-100.747,36.937-152.227,54.572-27.467,9.441-54.465,18.829-81.234,27.681-54.429,18-134.6,51.739-132.542,111.563" transform="translate(135.711 217.526)" fill="none" stroke="rgba(255,255,255,0.53)" stroke-miterlimit="10" stroke-width="1"/>
          <path id="Path_22" data-name="Path 22" d="M2216.7,1227.42c-9.483-10.466-18.295-24.158-26.543-39.128-5.185-9.408-10.2-19.518-15.8-29.559-25.6-45.882-53.339-94.328-90.482-153-26.058-41.165-56.346-84.238-88.686-129.305-30.609-42.456-67.1-80.951-109.175-111.66C1816.868,714.3,1738.1,670.4,1670.858,616.754c-14.013-11.181-28.094-21.7-42.521-31.444-40.084-27.086-81.133-47.4-133.717-58.154-74.033-15.137-157.826-2.606-236.029,9.48-38.318,5.89-76.268,11.583-114.2,13.74-39.9,2.309-79.411.577-118.293-7.076-63.192-12.467-123.627-41.016-172.457-82.491a370.576,370.576,0,0,1-28.609-27.076C779.706,386.011,747.027,328,706.343,275.24c-42.968-55.636-94.83-104.93-158.935-136.979-39.155-19.582-81.5-32-124.946-37.88-42.117-5.737-85.211-5.306-127.192.218-12.061,1.6-24,3.746-35.848,6.285-54.2,11.6-101.589,36.335-153.544,53.709-27.707,9.3-54.9,18.629-81.779,27.578-55.013,18.319-134.08,52.279-134.246,112.2" transform="translate(134.951 208.449)" fill="none" stroke="rgba(255,255,255,0.53)" stroke-miterlimit="10" stroke-width="1"/>
          <path id="Path_23" data-name="Path 23" d="M2241.916,1228.24c-10.622-10.1-20.535-23.584-29.873-38.406-5.863-9.311-11.549-19.344-17.785-29.292-28.56-45.566-58.619-93.567-97.111-151.951-27.033-41-57.834-84.128-90.332-129.685-30.7-42.848-67.126-81.868-109.1-113.305-68.859-51.575-147.575-96.529-216.082-149.29-14.3-11.015-28.713-21.332-43.48-30.835-41.03-26.423-83.033-45.8-136.015-55.823-74.722-14.127-158.761-1.4-237.46,10.307-38.574,5.708-76.794,11.091-114.973,12.841-40.158,1.881-79.887-.392-118.887-8.56-63.4-13.3-123.823-42.587-172.561-84.679a373.249,373.249,0,0,1-28.541-27.445c-45.2-48.339-77.6-106.9-118.3-160.068C668.448,216,616.246,166.443,551.949,133.972c-39.274-19.841-81.757-32.62-125.387-38.869-42.308-6.1-85.636-6.041-127.914-.851-12.146,1.5-24.174,3.554-36.118,5.993-54.7,11.176-102.429,35.733-154.855,52.845-27.952,9.159-55.332,18.429-82.324,27.478C-30.246,199.2-108.209,233.388-110.6,293.4" transform="translate(134.166 199.351)" fill="none" stroke="rgba(255,255,255,0.53)" stroke-miterlimit="10" stroke-width="1"/>
          <path id="Path_24" data-name="Path 24" d="M2267.129,1229.08c-11.761-9.739-22.776-23.01-33.2-37.686-6.542-9.208-12.9-19.167-19.77-29.023-31.528-45.244-63.9-92.806-103.743-150.9-28.006-40.837-59.322-84.018-91.979-130.066-30.8-43.237-67.15-82.783-109.017-114.95-68.576-52.684-147.239-98.694-217.014-150.568-14.593-10.853-29.326-20.963-44.437-30.23-41.978-25.757-84.935-44.2-138.313-53.489-75.412-13.115-159.7-.2-238.893,11.135-38.83,5.529-77.314,10.6-115.744,11.942-40.414,1.45-80.365-1.36-119.486-10.041-63.6-14.132-124.019-44.165-172.662-86.867A377.009,377.009,0,0,1,834.4,430.524c-45.072-48.956-77.186-108.058-117.908-161.647-42.971-56.471-95.508-106.28-160-139.175-39.4-20.1-82.016-33.235-125.829-39.858a489.635,489.635,0,0,0-128.636-1.916c-12.23,1.4-24.349,3.354-36.385,5.7-55.2,10.748-103.271,35.131-156.171,51.985C81.274,154.624,53.706,163.84,26.6,172.984c-56.177,18.949-133.038,53.36-137.656,113.467" transform="translate(133.38 190.233)" fill="none" stroke="rgba(255,255,255,0.53)" stroke-miterlimit="10" stroke-width="1"/>
          <path id="Path_25" data-name="Path 25" d="M2292.342,1229.945c-12.9-9.377-25.017-22.439-36.53-36.966-7.22-9.111-14.255-18.993-21.754-28.757-34.5-44.918-69.181-92.045-110.372-149.843-28.985-40.67-60.813-83.908-93.625-130.448-30.893-43.627-67.175-83.7-108.94-116.593-68.292-53.791-146.9-100.856-217.941-151.849-14.888-10.686-29.945-20.594-45.4-29.62-42.924-25.1-86.835-42.6-140.613-51.157-76.1-12.1-160.628,1-240.322,11.962-39.087,5.347-77.84,10.107-116.521,11.043-40.67,1.022-80.839-2.332-120.083-11.522-63.8-14.968-124.213-45.738-172.763-89.058a380.7,380.7,0,0,1-28.4-28.185C794.133,379.376,762.3,319.733,721.559,265.727c-42.971-56.886-95.844-106.951-160.53-140.271C521.514,105.1,478.759,91.6,434.761,84.611A493.912,493.912,0,0,0,305.4,81.624c-12.312,1.307-24.52,3.159-36.65,5.406-55.7,10.32-104.113,34.529-157.485,51.121-28.437,8.872-56.2,18.032-83.417,27.271-56.757,19.267-132.515,53.9-139.359,114.1" transform="translate(132.595 181.093)" fill="none" stroke="rgba(255,255,255,0.53)" stroke-miterlimit="10" stroke-width="1"/>
          <path id="Path_26" data-name="Path 26" d="M2317.555,1230.827c-14.04-9.013-27.257-21.867-39.858-36.243-7.9-9.014-15.61-18.816-23.741-28.49-37.465-44.585-74.461-91.284-117-148.79-29.961-40.5-62.3-83.8-95.274-130.827-30.988-44.019-67.2-84.61-108.859-118.237-68.014-54.9-146.569-103.016-218.871-153.13-15.179-10.52-30.56-20.222-46.353-29.01-43.875-24.432-88.74-41-142.914-48.825-76.786-11.089-161.563,2.206-241.755,12.792-39.343,5.163-78.361,9.613-117.295,10.141-40.924.594-81.313-3.3-120.678-13-64-15.8-124.412-47.314-172.869-91.248A384,384,0,0,1,843.757,427.4c-44.813-50.2-76.363-110.377-117.126-164.8C683.658,205.3,630.447,154.972,565.57,121.23A426.21,426.21,0,0,0,438.861,79.4,498.419,498.419,0,0,0,308.777,75.34c-12.4,1.209-24.695,2.964-36.92,5.116-56.2,9.89-104.953,33.927-158.8,50.258Q70.039,143.808,29.1,157.88C-28.239,177.465-102.9,212.324-111.967,272.62" transform="translate(131.81 171.933)" fill="none" stroke="rgba(255,255,255,0.53)" stroke-miterlimit="10" stroke-width="1"/>
          <path id="Path_27" data-name="Path 27" d="M2342.767,1231.73c-15.182-8.65-29.495-21.3-43.186-35.521-8.581-8.916-16.962-18.636-25.725-28.224-40.438-44.245-79.745-90.521-123.626-147.734-30.94-40.34-63.792-83.688-96.92-131.209-31.084-44.409-67.227-85.522-108.782-119.882-67.731-56-146.234-105.173-219.8-154.409a538.672,538.672,0,0,0-47.313-28.406c-44.821-23.768-90.64-39.4-145.214-46.491-77.469-10.072-162.495,3.41-243.184,13.62-39.6,4.983-78.887,9.121-118.069,9.241-41.183.164-81.79-4.268-121.277-14.483-64.2-16.636-124.608-48.89-172.97-93.439a387.4,387.4,0,0,1-28.266-28.926C803.752,375.056,772.486,314.332,731.7,259.491c-42.976-57.718-96.522-108.3-161.593-142.467A433.49,433.49,0,0,0,442.958,74.2a502.937,502.937,0,0,0-130.8-5.124c-12.481,1.114-24.869,2.77-37.187,4.824-56.694,9.459-105.8,33.325-160.113,49.394q-43.384,12.882-84.507,27.066c-57.918,19.9-131.474,54.985-142.769,115.373" transform="translate(131.025 162.752)" fill="none" stroke="rgba(255,255,255,0.53)" stroke-miterlimit="10" stroke-width="1"/>
          <path id="Path_28" data-name="Path 28" d="M2367.98,1232.655c-16.321-8.286-31.735-20.725-46.514-34.8-9.259-8.816-18.316-18.455-27.709-27.955A1757.966,1757.966,0,0,1,2163.5,1023.217c-31.921-40.173-65.283-83.577-98.569-131.591-31.176-44.8-67.251-86.434-108.7-121.524-67.455-57.106-145.9-107.331-220.727-155.69a522.07,522.07,0,0,0-48.272-27.8c-45.767-23.1-92.54-37.793-147.512-44.16-78.159-9.052-163.43,4.612-244.618,14.448-39.855,4.8-79.41,8.627-118.843,8.342-41.436-.264-82.267-5.237-121.874-15.967-64.4-17.468-124.8-50.463-173.071-95.624a391.325,391.325,0,0,1-28.2-29.3c-44.557-51.429-75.54-112.7-116.341-167.955-42.979-58.134-96.86-108.975-162.124-143.561a440.912,440.912,0,0,0-127.6-43.814,507.418,507.418,0,0,0-131.528-6.193c-12.56,1.017-25.041,2.572-37.451,4.532-57.2,9.029-106.635,32.723-161.429,48.533Q72.9,128.568,31.6,142.862C-26.9,163.084-99.358,198.387-112.877,258.87" transform="translate(130.24 153.549)" fill="none" stroke="rgba(255,255,255,0.53)" stroke-miterlimit="10" stroke-width="1"/>
          <path id="Path_29" data-name="Path 29" d="M2393.19,1233.6c-17.458-7.925-33.973-20.156-49.842-34.081-9.935-8.719-19.669-18.275-29.691-27.688-46.38-43.553-90.313-88.991-136.887-145.626-32.9-40.007-66.769-83.47-100.213-131.973-31.272-45.187-67.281-87.346-108.621-123.169-67.18-58.208-145.574-109.483-221.659-156.971a508.578,508.578,0,0,0-49.229-27.186c-46.716-22.444-94.443-36.187-149.812-41.828-78.843-8.032-164.362,5.816-246.046,15.275-40.114,4.62-79.934,8.135-119.62,7.443-41.692-.694-82.741-6.205-122.468-17.448-64.6-18.3-125-52.038-173.174-97.815A394.71,394.71,0,0,1,857.8,422.868c-44.429-52.049-75.126-113.856-115.951-169.533-42.979-58.549-97.2-109.649-162.653-144.657a448.265,448.265,0,0,0-128.037-44.8,511.909,511.909,0,0,0-132.251-7.263c-12.645.922-25.218,2.378-37.721,4.24-57.692,8.6-107.474,32.121-162.74,47.67q-44.111,12.456-85.6,26.858c-59.077,20.543-130.43,56.069-146.176,116.644" transform="translate(129.454 144.327)" fill="none" stroke="rgba(255,255,255,0.53)" stroke-miterlimit="10" stroke-width="1"/>
          <path id="Path_30" data-name="Path 30" d="M2418.4,1234.566c-18.6-7.561-36.213-19.587-53.17-33.358-10.616-8.624-21.021-18.094-31.678-27.422-49.349-43.2-95.6-88.225-143.513-144.573-33.875-39.838-68.26-83.357-101.862-132.352-31.365-45.579-67.308-88.258-108.543-124.814-66.9-59.312-145.241-111.635-222.586-158.249a497.146,497.146,0,0,0-50.186-26.579c-47.664-21.78-96.345-34.58-152.113-39.5-79.533-7.01-165.3,7.018-247.479,16.1-40.368,4.44-80.457,7.643-120.391,6.544-41.948-1.122-83.218-7.174-123.068-18.929C999.008,532.3,938.62,497.825,890.539,451.434A398.192,398.192,0,0,1,862.478,421.4c-44.3-52.666-74.714-115.014-115.559-171.111-42.979-58.964-97.536-110.323-163.185-145.754A455.986,455.986,0,0,0,455.256,58.744a516.314,516.314,0,0,0-132.973-8.329c-12.729.822-25.393,2.18-37.988,3.946C226.1,62.526,175.979,85.879,120.241,101.169q-44.479,12.24-86.148,26.753C-25.564,148.786-95.816,184.532-113.787,245.2" transform="translate(128.669 135.084)" fill="none" stroke="rgba(255,255,255,0.53)" stroke-miterlimit="10" stroke-width="1"/>
          <path id="Path_31" data-name="Path 31" d="M2443.616,1235.551c-19.737-7.2-38.454-19.016-56.5-32.636-11.3-8.526-22.373-17.911-33.662-27.155-52.32-42.843-100.881-87.459-150.142-143.52A1367.964,1367.964,0,0,1,2099.8,899.506c-31.46-45.969-67.338-89.168-108.464-126.456-66.63-60.414-144.912-113.782-223.515-159.53a487.776,487.776,0,0,0-51.145-25.972c-48.613-21.114-98.245-32.971-154.413-37.163-80.217-5.985-166.229,8.222-248.908,16.933-40.627,4.256-80.983,7.148-121.168,5.642a480.769,480.769,0,0,1-123.662-20.41c-65.01-19.971-125.393-55.19-173.379-102.194a402.171,402.171,0,0,1-27.993-30.407c-44.17-53.286-74.3-116.175-115.166-172.687-42.982-59.381-97.874-111-163.716-146.853a463.788,463.788,0,0,0-128.92-46.778,521,521,0,0,0-133.7-9.4q-19.216,1.091-38.252,3.656C228.7,55.514,178.247,78.8,122.035,93.833q-44.843,12.029-86.691,26.653c-60.194,21.3-129.389,57.15-149.586,117.914" transform="translate(127.884 125.821)" fill="none" stroke="rgba(255,255,255,0.53)" stroke-miterlimit="10" stroke-width="1"/>
          <path id="Path_32" data-name="Path 32" d="M2468.829,1236.556c-20.879-6.833-40.667-18.478-59.826-31.916-11.96-8.449-23.727-17.724-35.647-26.886-55.285-42.484-106.169-86.69-156.771-142.464a1199.245,1199.245,0,0,1-105.157-133.115c-31.552-46.358-67.368-90.078-108.384-128.1-66.354-61.513-144.579-115.929-224.442-160.811a479.187,479.187,0,0,0-52.1-25.362c-49.558-20.453-100.145-31.362-156.711-34.831-80.9-4.96-167.164,9.423-250.341,17.76-40.883,4.074-81.5,6.656-121.942,4.742a482.583,482.583,0,0,1-124.259-21.89c-65.21-20.8-125.586-56.765-173.48-104.384a404.106,404.106,0,0,1-27.922-30.778c-44.044-53.9-73.893-117.333-114.776-174.262-42.984-59.8-98.215-111.671-164.248-147.95A471.79,471.79,0,0,0,463.453,48.538,525.654,525.654,0,0,0,329.035,38.072q-19.343.945-38.52,3.364c-59.208,7.2-110,30.312-166.684,45.082q-45.207,11.81-87.239,26.548c-60.775,21.611-128.868,57.69-151.29,118.55" transform="translate(127.099 116.538)" fill="none" stroke="rgba(255,255,255,0.53)" stroke-miterlimit="10" stroke-width="1"/>
          <path id="Path_33" data-name="Path 33" d="M2494.042,1237.583c-22.018-6.472-42.913-17.909-63.154-31.2-12.642-8.352-25.079-17.543-37.634-26.62-58.249-42.121-111.451-85.922-163.4-141.411a1071.054,1071.054,0,0,1-106.8-133.495c-31.648-46.75-67.4-90.99-108.305-129.746C1948.663,712.5,1870.5,657.042,1789.376,613.023a472.7,472.7,0,0,0-53.064-24.755c-50.507-19.787-102.045-29.751-159.011-32.5-81.588-3.933-168.1,10.628-251.77,18.588-41.139,3.894-82.03,6.164-122.716,3.843a484.1,484.1,0,0,1-124.859-23.374c-65.411-21.637-125.783-58.338-173.583-106.572a408.134,408.134,0,0,1-27.851-31.147c-43.914-54.521-73.482-118.494-114.387-175.841-42.984-60.211-98.55-112.345-164.776-149.046A479.648,479.648,0,0,0,467.553,43.468a530.15,530.15,0,0,0-135.14-11.537q-19.47.8-38.789,3.072c-59.7,6.772-110.84,29.71-168,44.219q-45.571,11.6-87.784,26.446C-23.514,127.594-90.5,163.9-115.152,224.853" transform="translate(126.314 107.235)" fill="none" stroke="rgba(255,255,255,0.53)" stroke-miterlimit="10" stroke-width="1"/>
          <path id="Path_34" data-name="Path 34" d="M2519.255,1238.628c-23.158-6.108-45.157-17.338-66.485-30.473-13.321-8.255-26.428-17.358-39.615-26.354-61.214-41.757-116.851-85.059-170.029-140.359a961.174,961.174,0,0,1-108.448-133.876c-31.743-47.14-67.434-91.9-108.229-131.389a989.782,989.782,0,0,0-226.3-163.371,465.673,465.673,0,0,0-54.018-24.148c-51.456-19.126-103.945-28.139-161.312-30.163-82.275-2.906-169.031,11.826-253.2,19.413-41.4,3.712-82.553,5.67-123.49,2.946A486.016,486.016,0,0,1,1082.672,556c-65.613-22.472-125.979-59.914-173.687-108.763A411.161,411.161,0,0,1,881.2,415.719C837.416,360.58,808.131,296.067,767.208,238.3,724.221,177.674,668.319,125.282,601.9,88.157A487.931,487.931,0,0,0,471.652,38.414,534.786,534.786,0,0,0,335.787,25.809q-19.592.657-39.054,2.78c-60.2,6.346-111.683,29.11-169.312,43.358C96.8,79.536,67.347,88.237,39.093,98.288c-61.939,22.241-127.827,58.774-154.7,119.821" transform="translate(125.529 97.913)" fill="none" stroke="rgba(255,255,255,0.53)" stroke-miterlimit="10" stroke-width="1"/>
          <path id="Path_35" data-name="Path 35" d="M2544.468,1239.691c-24.3-5.747-47.4-16.766-69.813-29.751-14-8.158-27.781-17.173-41.6-26.087-64.177-41.388-122.125-84.295-176.658-139.3a883.579,883.579,0,0,1-110.1-134.258c-31.838-47.529-67.464-92.806-108.147-133.033-65.545-64.813-143.592-122.355-227.23-164.652a461.1,461.1,0,0,0-54.977-23.538c-52.4-18.462-105.844-26.528-163.613-27.832-82.957-1.875-169.963,13.031-254.632,20.24-41.651,3.531-83.077,5.178-124.267,2.044a487.685,487.685,0,0,1-126.05-26.336c-65.815-23.3-126.175-61.49-173.788-110.951a415.3,415.3,0,0,1-27.715-31.888c-43.657-55.758-72.659-120.812-113.6-178.994-42.99-61.047-99.229-113.695-165.839-151.242A496.266,496.266,0,0,0,475.752,33.38,539.55,539.55,0,0,0,339.165,19.706q-19.719.515-39.321,2.488c-60.7,5.921-112.525,28.508-170.629,42.495A868.463,868.463,0,0,0,40.341,90.927c-62.519,22.554-127.3,59.317-156.4,120.456" transform="translate(124.743 88.571)" fill="none" stroke="rgba(255,255,255,0.53)" stroke-miterlimit="10" stroke-width="1"/>
          <path id="Path_36" data-name="Path 36" d="M2569.681,1240.774c-25.437-5.383-49.646-16.195-73.141-29.031-14.686-8.058-29.13-16.987-43.584-25.818-67.137-41.019-127.4-83.534-183.287-138.25a819.557,819.557,0,0,1-111.743-134.64c-31.934-47.919-67.578-93.644-108.068-134.676-65.4-65.8-143.263-124.494-228.16-165.933a457.145,457.145,0,0,0-55.937-22.928c-53.35-17.8-107.741-24.916-165.91-25.5-83.641-.843-170.9,14.232-256.066,21.07-41.908,3.349-83.6,4.684-125.038,1.143A489.514,489.514,0,0,1,1092.1,558.395c-66.019-24.14-126.374-63.066-173.891-113.141A418.971,418.971,0,0,1,890.562,413c-43.527-56.376-72.247-121.973-113.209-180.573-42.992-61.462-99.567-114.369-166.371-152.336a504.7,504.7,0,0,0-131.13-51.723,544.225,544.225,0,0,0-137.31-14.742q-19.846.373-39.591,2.2c-61.195,5.493-113.364,27.906-171.94,41.634A812.388,812.388,0,0,0,41.59,83.588c-63.1,22.867-126.783,59.855-158.107,121.089" transform="translate(123.958 79.21)" fill="none" stroke="rgba(255,255,255,0.53)" stroke-miterlimit="10" stroke-width="1"/>
          <path id="Path_37" data-name="Path 37" d="M2594.893,1241.873c-26.578-5.019-51.891-15.623-76.469-28.308-15.367-7.96-30.481-16.8-45.571-25.552-70.091-40.647-132.67-82.77-189.913-137.194A766.25,766.25,0,0,1,2169.549,915.8c-32.027-48.311-67.6-94.566-107.989-136.321-65.117-66.916-142.933-126.628-229.087-167.211a453.725,453.725,0,0,0-56.9-22.323c-54.3-17.135-109.638-23.2-168.211-23.166-84.322.333-171.831,15.437-257.494,21.9-42.164,3.167-84.123,4.192-125.815.246a491.647,491.647,0,0,1-127.244-29.3c-66.218-24.973-126.568-64.641-173.992-115.332a422.6,422.6,0,0,1-27.579-32.625c-43.4-57-71.833-123.133-112.819-182.151A511.66,511.66,0,0,0,483.948,23.37,548.775,548.775,0,0,0,345.917,7.559q-19.968.223-39.855,1.9c-61.693,5.065-114.2,27.3-173.256,40.768A765.3,765.3,0,0,0,42.838,76.264c-63.683,23.182-126.26,60.4-159.81,121.724" transform="translate(123.173 69.833)" fill="none" stroke="rgba(255,255,255,0.53)" stroke-miterlimit="10" stroke-width="1"/>
          <path id="Path_38" data-name="Path 38" d="M2620.106,1243c-27.718-4.658-54.135-15.055-79.8-27.589-16.049-7.863-31.831-16.615-47.555-25.285-73.048-40.276-137.944-82.01-196.544-136.141a720.754,720.754,0,0,1-115.036-135.4c-32.122-48.7-67.624-95.486-107.91-137.965C2008.428,712.584,1930.585,652,1843.248,612.122a456.763,456.763,0,0,0-57.853-21.714c-55.247-16.472-111.538-21.6-170.511-20.835-85,1.343-172.763,16.641-258.927,22.726-42.42,2.985-84.646,3.7-126.589-.656a493.523,493.523,0,0,1-127.841-30.781c-66.42-25.805-126.764-66.214-174.093-117.517a426.877,426.877,0,0,1-27.51-33C856.652,352.735,828.5,286.057,787.5,226.619A519.019,519.019,0,0,0,488.048,18.392,553.49,553.49,0,0,0,349.294,1.513q-20.1.081-40.122,1.612c-62.192,4.64-115.046,26.7-174.57,39.907A723.485,723.485,0,0,0,44.09,68.959C-20.177,92.456-81.652,129.9-117.427,191.322" transform="translate(122.388 60.435)" fill="none" stroke="rgba(255,255,255,0.53)" stroke-miterlimit="10" stroke-width="1"/>
          <path id="Path_39" data-name="Path 39" d="M2645.316,1244.133c-28.854-4.294-56.378-14.481-83.123-26.869-16.733-7.763-33.194-16.4-49.539-25.016-76.069-39.789-143.219-81.246-203.174-135.088A681.816,681.816,0,0,1,2192.8,921.38c-32.215-49.092-67.646-96.406-107.831-139.61C2020.415,712.622,1942.638,650.989,1854.02,612a453.7,453.7,0,0,0-58.81-21.1c-56.193-15.811-113.433-20.007-172.812-18.5-85.682,2.349-173.7,17.842-260.356,23.553-42.679,2.805-85.172,3.208-127.364-1.553a495.62,495.62,0,0,1-128.438-32.264c-66.621-26.641-126.96-67.79-174.2-119.708a430.72,430.72,0,0,1-27.44-33.369c-43.14-58.231-71.01-125.45-112.034-185.3A523.524,523.524,0,0,0,624.606,68.119,530.866,530.866,0,0,0,492.148,13.431,558.364,558.364,0,0,0,352.671-4.516Q332.449-4.582,312.279-3.2C249.591,1.018,196.393,22.9,136.4,35.847A687.705,687.705,0,0,0,45.338,61.672c-64.847,23.812-125.218,61.482-163.22,123" transform="translate(121.603 51.02)" fill="none" stroke="rgba(255,255,255,0.53)" stroke-miterlimit="10" stroke-width="1"/>
          <path id="Path_40" data-name="Path 40" d="M2670.529,1245.287c-29.993-3.93-58.622-13.91-86.454-26.146-17.412-7.666-34.535-16.226-51.521-24.75-79-39.451-148.493-80.485-209.8-134.033a648.215,648.215,0,0,1-118.331-136.164c-32.31-49.481-67.671-97.323-107.752-141.252C2032.4,712.68,1954.691,650,1864.795,611.89a450.5,450.5,0,0,0-59.769-20.5c-57.141-15.144-115.33-18.409-175.11-16.169-86.364,3.356-174.63,19.047-261.789,24.381-42.932,2.624-85.693,2.716-128.138-2.452a497.859,497.859,0,0,1-129.034-33.745c-66.823-27.473-127.156-69.366-174.3-121.9Q922.1,425.293,909.283,407.77c-43.011-58.848-70.6-126.61-111.642-186.88-43-63.124-100.922-117.064-168.494-156.725A539.736,539.736,0,0,0,496.247,8.49a563.13,563.13,0,0,0-140.2-19.018Q335.7-10.735,315.389-9.5c-63.187,3.787-116.728,25.5-177.2,38.183C106.11,35.418,75.514,43.765,46.587,54.405c-65.43,24.125-124.7,62.02-164.924,123.631" transform="translate(120.817 41.587)" fill="none" stroke="rgba(255,255,255,0.53)" stroke-miterlimit="10" stroke-width="1"/>
          <path id="Path_41" data-name="Path 41" d="M2695.742,1246.46c-31.136-3.566-60.865-13.338-89.782-25.424-18.093-7.568-35.881-16.046-53.508-24.483-81.924-39.113-153.764-79.724-216.429-132.979a618.69,618.69,0,0,1-119.98-136.544c-32.4-49.871-67.692-98.243-107.67-142.9-63.983-71.38-141.63-135.111-232.8-172.333a448.744,448.744,0,0,0-60.729-19.889c-58.087-14.483-117.227-16.812-177.41-13.838-87.042,4.363-175.562,20.248-263.218,25.208-43.191,2.442-86.219,2.221-128.914-3.351A500.03,500.03,0,0,1,1115.667,564.7c-67.025-28.308-127.35-70.941-174.4-124.089q-14.523-16.4-27.3-34.106C871.08,347.043,843.776,278.738,802.714,218.05c-43-63.54-101.26-117.738-169.026-157.821A548.9,548.9,0,0,0,500.347,3.565,567.928,567.928,0,0,0,359.423-16.521q-20.471-.354-40.924.735c-63.686,3.361-117.57,24.893-178.514,37.319-32.321,6.595-63.111,14.883-92.148,25.621-66.014,24.44-124.177,62.563-166.63,124.266" transform="translate(120.032 32.136)" fill="none" stroke="rgba(255,255,255,0.53)" stroke-miterlimit="10" stroke-width="1"/>
          <path id="Path_42" data-name="Path 42" d="M2720.955,1247.652c-52.475-5.211-101.148-27.235-148.6-48.92-145.361-66.427-259.421-136.989-344.683-268.852-32.5-50.26-67.72-99.16-107.594-144.54-77.391-88.077-175.27-164.77-295.416-192.894-186.642-43.689-383.783,36.779-574.048,10.279C1117.24,584.148,993.6,510.6,918.643,405.264c-42.753-60.086-69.775-128.931-110.859-190.037-69.3-103.072-179.108-181.472-303.34-216.57A577.4,577.4,0,0,0,321.607-22.052C257.428-19.118,203.2,2.236,141.782,14.4,34.823,35.59-55.011,75.973-119.247,164.821" transform="translate(119.247 22.669)" fill="none" stroke="rgba(255,255,255,0.53)" stroke-miterlimit="10" stroke-width="1"/>
        </g>
        <g id="Group_2" data-name="Group 2" transform="translate(-346.866 -126.913)">
          <path id="Path_43" data-name="Path 43" d="M30.53,1046.407c-60.96,14.056-126.554-26.72-148.142-82.122s-5.048-119.362,30.833-167.77c134.69-181.718,343.094-27.212,506.81,15.1,99.425,25.7,220.484,28.913,320.231,2.916,62.029-16.167,131.736-49.6,162.73-105.219,56.61-101.589-58.393-169.72-57.916-266.446.641-130.133,193.857-147.432,292.14-117.6,112.893,34.268,206.624,109.121,320.177,141.655,124.022,35.531,239.521-3.925,325.535-92.084,54.02-55.366,94.693-127.1,91.12-202.153C1865.806-.53,1670.655-37.473,1523.481-49.307" transform="translate(127.258 49.307)" fill="none" stroke="rgba(255,255,255,0.53)" stroke-miterlimit="10" stroke-width="1"/>
          <path id="Path_44" data-name="Path 44" d="M25.81,1054.744C-32.2,1069.138-94.562,1029.6-114,975.509A138.766,138.766,0,0,1-122,928.436c.052-41.062,16.613-82.886,42.922-117.128a259.109,259.109,0,0,1,33.422-36.289c104.443-93.226,240.218-38.029,364.134,7.266,35.971,13.154,70.955,25.493,104.073,33.125a654.459,654.459,0,0,0,111.426,15.442c68.527,3.735,140.188-2.6,204.078-19.413,9.7-2.549,19.587-5.488,29.506-8.824,23.157-7.791,46.378-17.758,67.456-30.32,21.38-12.749,40.577-28.175,55.239-46.7a139.921,139.921,0,0,0,11.723-17.253c16.316-28.529,18.788-54.716,14.149-79.681-4.334-23.13-14.732-45.105-25.728-67.006-18.892-37.616-40.493-73.972-39.555-115.644,2.339-124.553,192.3-138.583,290.543-107.564,36.6,11.486,71.3,27.076,105.46,43.94,70.7,34.911,138.9,75.117,215.406,95.627a317.753,317.753,0,0,0,95.824,11.084c86-3.382,163.435-43.222,226.047-108.4,35.494-37,65.438-80.974,81.119-128.055,7.973-23.95,12.249-48.692,11.628-73.793-.85-31.575-7.872-58.633-19.7-81.933C1804.547-6.192,1657.27-35.308,1539.324-47.749" transform="translate(136.339 51.741)" fill="none" stroke="rgba(255,255,255,0.53)" stroke-miterlimit="10" stroke-width="1"/>
          <path id="Path_45" data-name="Path 45" d="M21.172,1063.084c-55.051,14.732-114.19-23.566-131.485-76.352a134.7,134.7,0,0,1-6.405-46c1.3-40.189,18.619-80.967,45.429-114.63a268.637,268.637,0,0,1,33.864-35.823c104.947-92.347,239.69-41.439,360.983-.535,35.208,11.888,69.314,22.969,101.6,29.461a642.877,642.877,0,0,0,108.8,12.162c67.1,1.978,137.953-6.016,201.977-23.023,9.7-2.577,19.614-5.5,29.565-8.793,23.237-7.679,46.544-17.307,67.758-29.5,21.509-12.37,40.91-27.381,55.839-45.636a135.1,135.1,0,0,0,11.955-17.056c16.564-28.221,19.265-54.449,15.008-79.514-4-23.156-13.866-45.116-23.923-66.873-17.314-37.447-36.939-72.24-35.437-111.83,4.511-118.957,190.75-129.733,288.943-97.528,36.44,11.816,71.124,27.54,105.4,44.367,70.9,34.811,139.719,74.034,216.158,93.114a310.182,310.182,0,0,0,95.361,9.226c85.2-5.058,160.876-46.248,222.845-111.773,35.183-37.314,65.13-81.364,81.411-128.25,8.272-23.845,13.056-48.4,12.963-73.291-.117-31.262-6.372-58.113-17.319-81.369C1813.594.895,1671.057-30.962,1555.25-46.191" transform="translate(145.339 54.174)" fill="none" stroke="rgba(255,255,255,0.53)" stroke-miterlimit="10" stroke-width="1"/>
          <path id="Path_46" data-name="Path 46" d="M16.625,1071.421c-52.094,15.07-108.008-21.988-123.152-73.465a130.048,130.048,0,0,1-4.819-44.926c2.448-39.318,20.713-78.984,47.934-112.129a287.726,287.726,0,0,1,34.306-35.357c105.686-91.228,239.161-44.849,357.832-8.337,34.447,10.622,67.674,20.445,99.128,25.8a634.166,634.166,0,0,0,106.179,8.885c65.665.215,135.721-9.433,199.875-26.638,9.709-2.6,19.639-5.519,29.623-8.76,23.318-7.563,46.716-16.859,68.063-28.675,21.637-11.993,41.242-26.587,56.438-44.57a131.038,131.038,0,0,0,12.189-16.853c16.807-27.914,19.791-54.193,15.861-79.35-3.622-23.192-13-45.131-22.116-66.74-15.738-37.291-33.458-70.506-31.318-108.015,6.465-113.357,189.106-120.646,287.343-87.49,36.252,12.234,70.947,28,105.348,44.79,71.094,34.714,140.537,72.953,216.905,90.605a305.276,305.276,0,0,0,94.9,7.369c84.388-6.938,158.316-49.276,219.645-115.15,34.873-37.624,64.82-81.756,81.7-128.445,8.572-23.74,13.833-48.1,14.3-72.789.583-30.952-4.8-57.621-14.934-80.805-44.8-102.516-182.911-136.992-296.583-155.008" transform="translate(154.244 56.608)" fill="none" stroke="rgba(255,255,255,0.53)" stroke-miterlimit="10" stroke-width="1"/>
          <path id="Path_47" data-name="Path 47" d="M12.166,1079.758c-49.139,15.408-101.827-20.41-114.823-70.58a126.511,126.511,0,0,1-3.23-43.853c3.661-38.446,22.74-77.039,50.439-109.629A303.328,303.328,0,0,1-20.7,820.806C85.552,730.529,217.929,772.547,333.98,804.67c33.684,9.354,66.041,17.855,96.656,22.131a635.223,635.223,0,0,0,103.555,5.606c64.234-1.545,133.485-12.849,197.774-30.248,9.717-2.626,19.663-5.534,29.683-8.726,23.4-7.453,46.882-16.41,68.369-27.852,21.762-11.617,41.572-25.8,57.035-43.5a125.737,125.737,0,0,0,12.421-16.656c17.12-27.565,20.285-53.929,16.719-79.184-3.276-23.22-12.132-45.154-20.312-66.606-14.163-37.148-29.972-68.766-27.2-104.2,8.433-107.748,187.522-111.727,285.746-77.457,36.08,12.59,70.77,28.465,105.288,45.216,71.288,34.616,141.36,71.874,217.658,88.095a298.951,298.951,0,0,0,94.434,5.511c83.575-8.675,155.754-52.3,216.442-118.524,34.562-37.934,64.512-82.145,81.994-128.639,8.872-23.635,14.61-47.8,15.632-72.286,1.278-30.637-3.282-57.106-12.549-80.242-40.94-102.186-174.414-139.377-285.95-160.181" transform="translate(163.064 59.042)" fill="none" stroke="rgba(255,255,255,0.53)" stroke-miterlimit="10" stroke-width="1"/>
          <path id="Path_48" data-name="Path 48" d="M7.8,1088.1c-46.181,15.747-95.642-18.831-106.49-67.693a123.487,123.487,0,0,1-1.644-42.779c4.876-37.581,24.771-75.1,52.947-107.131A321.072,321.072,0,0,1-12.2,836.072c106.82-89.332,238.1-51.672,351.533-23.94,32.921,8.088,64.4,15.316,94.184,18.468a634.949,634.949,0,0,0,100.93,2.326c62.8-3.305,131.253-16.264,195.67-33.86,9.728-2.652,19.693-5.549,29.743-8.693,23.482-7.34,47.054-15.962,68.674-27.03,21.893-11.237,41.867-25.031,57.635-42.436a123.337,123.337,0,0,0,12.653-16.459C916.2,677.2,919.6,650.785,916.4,625.43c-2.933-23.246-11.268-45.185-18.508-66.473C885.3,521.94,871.4,491.933,874.809,458.572c10.42-102.122,185.936-102.809,284.146-67.416,35.914,12.941,70.593,28.926,105.231,45.641,71.484,34.516,142.221,70.613,218.407,85.581a295.059,295.059,0,0,0,93.974,3.654c82.76-10.41,153.195-55.325,213.239-121.9,34.251-38.244,64.2-82.537,82.286-128.834,9.175-23.53,15.386-47.506,16.968-71.784,1.973-30.325-1.761-56.591-10.164-79.678-37.083-101.85-165.921-141.762-275.32-165.354" transform="translate(171.787 61.476)" fill="none" stroke="rgba(255,255,255,0.53)" stroke-miterlimit="10" stroke-width="1"/>
          <path id="Path_49" data-name="Path 49" d="M3.54,1096.435c-43.227,16.082-89.46-17.255-98.16-64.81a120.95,120.95,0,0,1-.055-41.706c6.092-36.715,26.794-73.158,55.449-104.63A341.99,341.99,0,0,1-3.6,851.334c107.376-88.389,237.569-55.082,348.379-31.742,32.163,6.82,62.754,12.774,91.714,14.8a639.068,639.068,0,0,0,98.3-.953c61.372-5.063,129.018-19.679,193.568-37.47,9.733-2.677,19.718-5.567,29.8-8.66,23.561-7.228,47.22-15.513,68.976-26.21,22.021-10.858,42.191-24.242,58.234-41.367a119.7,119.7,0,0,0,12.884-16.261c17.641-26.93,21.269-53.4,18.437-78.851-2.589-23.274-10.4-45.223-16.7-66.34-11.015-36.9-22.991-65.274-18.963-96.567,12.424-96.485,184.352-93.9,282.548-57.38,35.742,13.292,70.413,29.387,105.171,46.064,71.68,34.419,143.044,69.5,219.157,83.073a289.549,289.549,0,0,0,93.513,1.8c81.943-12.144,150.777-58.241,210.034-125.275,34.025-38.49,63.9-82.927,82.58-129.029,9.474-23.425,16.161-47.206,18.3-71.285,2.669-30-.237-56.071-7.779-79.109C1851.338,29.063,1727.141-13.58,1619.88-39.959" transform="translate(180.41 63.909)" fill="none" stroke="rgba(255,255,255,0.53)" stroke-miterlimit="10" stroke-width="1"/>
          <path id="Path_50" data-name="Path 50" d="M-.616,1104.772c-40.269,16.42-83.278-15.677-89.828-61.923a119.242,119.242,0,0,1,1.532-40.634C-81.6,966.367-60.091,931-30.956,900.083A366.439,366.439,0,0,1,5.113,866.6c107.932-87.449,237.04-58.495,345.231-39.54,31.4,5.552,61.107,10.233,89.242,11.135a648.28,648.28,0,0,0,95.683-4.227c59.938-6.825,126.78-23.1,191.464-41.083,9.742-2.7,19.745-5.583,29.86-8.629,23.643-7.115,47.392-15.065,69.282-25.388,22.149-10.482,42.518-23.453,58.834-40.3A117.235,117.235,0,0,0,897.828,702.5c17.9-26.615,21.756-53.132,19.292-78.687-2.246-23.3-9.529-45.272-14.9-66.207-9.439-36.8-19.494-63.516-14.844-92.755,14.449-90.818,182.769-84.992,280.948-47.342,35.576,13.643,70.236,29.851,105.114,46.489,71.876,34.322,143.867,68.392,219.909,80.562a284.118,284.118,0,0,0,93.05-.062c81.125-13.868,148.237-61.252,206.831-128.65,33.725-38.792,63.59-83.319,82.872-129.224,9.774-23.32,16.932-46.906,19.636-70.782,3.361-29.689,1.284-55.554-5.394-78.548C1860.969,36.145,1741.417-9.237,1636.29-38.4" transform="translate(188.924 66.343)" fill="none" stroke="rgba(255,255,255,0.53)" stroke-miterlimit="10" stroke-width="1"/>
          <path id="Path_51" data-name="Path 51" d="M-4.65,1113.11c-37.315,16.759-77.1-14.1-81.5-59.038a117.982,117.982,0,0,1,3.121-39.559c8.531-34.99,30.841-69.279,60.461-99.634a394.443,394.443,0,0,1,36.511-33.02c108.477-86.514,236.509-61.9,342.08-47.342,30.637,4.286,59.461,7.691,86.77,7.471a664.79,664.79,0,0,0,93.058-7.507c58.507-8.586,124.548-26.512,189.362-44.7,9.75-2.726,19.769-5.6,29.92-8.6,23.722-7,47.558-14.614,69.587-24.565,22.274-10.1,42.843-22.664,59.431-39.231A114.09,114.09,0,0,0,897.5,701.53c18.156-26.295,22.244-52.866,20.151-78.52-1.905-23.328-8.654-45.326-13.094-66.073-7.855-36.717-15.992-61.749-10.726-88.94,16.493-85.13,181.185-76.091,279.351-37.3,35.407,13.989,70.056,30.312,105.054,46.914,72.073,34.224,144.691,67.283,220.659,78.049a278.826,278.826,0,0,0,92.589-1.919c80.3-15.593,145.694-64.264,203.628-132.024,33.425-39.095,63.282-83.708,83.164-129.418,10.074-23.215,17.706-46.607,20.969-70.28,4.053-29.372,2.8-55.033-3.006-77.985C1870.713,43.235,1755.808-4.891,1652.82-36.843" transform="translate(197.319 68.777)" fill="none" stroke="rgba(255,255,255,0.53)" stroke-miterlimit="10" stroke-width="1"/>
          <path id="Path_52" data-name="Path 52" d="M-8.556,1121.447c-34.36,17.1-70.914-12.519-73.169-56.151a117.661,117.661,0,0,1,4.707-38.488c9.755-34.127,32.864-67.337,62.969-97.134A427.936,427.936,0,0,1,22.9,897.122c109.022-85.581,235.98-65.315,338.929-55.141,29.876,3.018,57.815,5.15,84.3,3.8A689.958,689.958,0,0,0,536.564,835c57.076-10.346,122.313-29.928,187.261-48.305,9.758-2.752,19.794-5.614,29.977-8.562,23.806-6.89,47.73-14.168,69.892-23.743,22.405-9.726,43.172-21.878,60.031-38.165a111.439,111.439,0,0,0,13.582-15.664c18.412-25.982,22.732-52.6,21.01-78.356-1.565-23.356-7.774-45.387-11.29-65.94-6.266-36.648-12.487-59.968-6.607-85.122,18.565-79.409,179.6-67.2,277.751-27.271,35.241,14.335,69.879,30.776,105,47.339,72.266,34.127,145.511,66.173,221.411,75.54a273.973,273.973,0,0,0,92.126-3.776c79.481-17.312,143.151-67.283,200.426-135.4,33.125-39.4,62.974-84.1,83.455-129.613,10.377-23.11,18.475-46.3,22.3-69.778,4.74-29.051,4.323-54.511-.624-77.418C1880.582,50.332,1770.331-.546,1669.477-35.285" transform="translate(205.586 71.21)" fill="none" stroke="rgba(255,255,255,0.53)" stroke-miterlimit="10" stroke-width="1"/>
          <path id="Path_53" data-name="Path 53" d="M-12.323,1129.787c-31.405,17.435-64.73-10.943-64.836-53.268a118.23,118.23,0,0,1,6.3-37.414c10.979-33.268,34.881-65.4,65.471-94.633A468.611,468.611,0,0,1,32,912.384c109.559-84.654,235.448-68.725,335.778-62.943,29.113,1.753,56.163,2.611,81.828.141a740.745,740.745,0,0,0,87.808-14.063C593.035,823.3,657.5,802.174,722.576,783.6c9.763-2.777,19.821-5.629,30.037-8.529,23.885-6.777,47.9-13.717,70.195-22.92,22.533-9.346,43.5-21.088,60.63-37.1a109.228,109.228,0,0,0,13.817-15.467c18.666-25.664,23.218-52.333,21.863-78.189-1.224-23.382-6.882-45.459-9.48-65.81-4.672-36.589-8.978-58.172-2.491-81.305,20.655-73.639,178.023-58.305,276.154-17.233,35.072,14.678,69.7,31.234,104.937,47.762,72.463,34.03,146.329,65.069,222.161,73.03a269.113,269.113,0,0,0,91.662-5.634c78.658-19.026,140.608-70.3,197.226-138.775,32.825-39.7,62.666-84.49,83.747-129.808,10.677-23,19.244-46,23.64-69.276,5.424-28.734,5.838-53.988,1.761-76.855C1890.588,57.437,1784.995,3.8,1686.278-33.727" transform="translate(213.712 73.644)" fill="none" stroke="rgba(255,255,255,0.53)" stroke-miterlimit="10" stroke-width="1"/>
          <path id="Path_54" data-name="Path 54" d="M-15.935,1138.126c-28.451,17.773-58.551-9.364-56.506-50.381a119.95,119.95,0,0,1,7.883-36.341c12.208-32.415,36.9-63.46,67.979-92.135,12.394-11.435,24.986-21.849,37.833-31.621,110.094-83.731,234.922-72.135,332.63-70.744,28.35.487,54.509.074,79.356-3.523a799.924,799.924,0,0,0,85.183-17.343c54.179-13.984,117.845-36.761,183.058-55.531,9.772-2.8,19.846-5.644,30.094-8.5,23.967-6.661,48.068-13.269,70.5-22.1,22.662-8.97,43.829-20.3,61.23-36.028a106.661,106.661,0,0,0,14.048-15.27c18.919-25.347,23.7-52.067,22.721-78.023-.886-23.407-5.988-45.536-7.675-65.676-3.064-36.548-5.468-56.355,1.63-77.49,22.765-67.813,176.44-49.417,274.551-7.2,34.905,15.021,69.522,31.7,104.879,48.19,72.659,33.93,147.147,63.965,222.91,70.516a264.54,264.54,0,0,0,91.2-7.492c77.835-20.735,138.062-73.316,194.023-142.149,32.523-40.007,62.359-84.882,84.039-130,10.976-22.9,20.012-45.7,24.973-68.774,6.111-28.413,7.356-53.463,4.148-76.294C1900.739,64.548,1799.812,8.147,1703.229-32.17" transform="translate(221.685 76.076)" fill="none" stroke="rgba(255,255,255,0.53)" stroke-miterlimit="10" stroke-width="1"/>
          <path id="Path_55" data-name="Path 55" d="M-19.4,1146.463c-25.493,18.111-52.366-7.786-48.174-47.5A122.8,122.8,0,0,1-58.1,1063.7c13.438-31.557,38.909-61.523,70.484-89.634,12.555-11.181,25.292-21.437,38.274-31.152,110.622-82.814,234.391-75.548,329.477-78.546,27.589-.784,52.854-2.465,76.884-7.189,25.311-4.978,52.718-11.709,82.561-20.622,52.739-15.752,115.61-40.176,180.956-59.14,9.78-2.829,19.873-5.662,30.154-8.465,24.046-6.551,48.234-12.823,70.805-21.278,22.787-8.591,44.156-19.508,61.827-34.96a104.588,104.588,0,0,0,14.28-15.073c19.173-25.029,24.188-51.8,23.58-77.856-.548-23.433-5.086-45.618-5.871-65.543-1.442-36.52-1.954-54.516,5.748-73.675,24.891-61.918,174.862-40.535,272.951,2.841,34.739,15.362,69.344,32.159,104.822,48.613,72.855,33.832,147.961,62.863,223.662,68.005a260.153,260.153,0,0,0,90.739-9.346c77.009-22.444,135.516-76.337,190.82-145.526,32.22-40.312,62.051-85.271,84.333-130.2,11.273-22.795,20.772-45.4,26.306-68.274,6.792-28.091,8.872-52.933,6.531-75.727C1911.031,71.666,1814.776,12.49,1720.334-30.612" transform="translate(229.507 78.51)" fill="none" stroke="rgba(255,255,255,0.53)" stroke-miterlimit="10" stroke-width="1"/>
          <path id="Path_56" data-name="Path 56" d="M-22.686,1154.8c-22.539,18.449-46.184-6.208-39.844-44.608A127.3,127.3,0,0,1-51.472,1076c14.672-30.7,40.924-59.584,72.989-87.134,12.718-10.927,25.6-21.025,38.716-30.686,111.148-81.9,233.862-78.958,326.328-86.347,26.829-2.05,51.2-5,74.411-10.856,24.419-6.159,50.894-13.981,79.939-23.9,51.3-17.517,113.375-43.591,178.852-62.753,9.785-2.854,19.9-5.678,30.214-8.432,24.128-6.438,48.4-12.372,71.108-20.456,22.918-8.211,44.486-18.718,62.427-33.894a102.487,102.487,0,0,0,14.512-14.87c19.423-24.716,24.673-51.534,24.439-77.692-.21-23.458-4.173-45.708-4.067-65.41.194-36.5,1.551-52.643,9.867-69.86,27.012-55.93,173.283-31.654,271.354,12.88,34.573,15.7,69.167,32.62,104.762,49.038,73.051,33.732,148.777,61.761,224.412,65.494,31.847,1.571,62.173-2.3,90.278-11.206,76.183-24.143,132.965-79.355,187.618-148.9,31.918-40.617,61.743-85.661,84.625-130.389,11.573-22.69,21.538-45.092,27.641-67.772,7.471-27.768,10.382-52.4,8.916-75.161-6.376-98.9-97.951-160.852-190.259-206.742" transform="translate(237.155 80.944)" fill="none" stroke="rgba(255,255,255,0.53)" stroke-miterlimit="10" stroke-width="1"/>
          <path id="Path_57" data-name="Path 57" d="M-25.769,1163.14c-19.584,18.785-40-4.632-31.517-41.726a133.748,133.748,0,0,1,12.65-33.12c15.91-29.851,42.932-57.652,75.494-84.638,12.876-10.671,25.908-20.607,39.157-30.217C181.681,892.451,303.32,890.9,393.192,879.29c26.058-3.364,49.54-7.53,71.939-14.519,23.525-7.338,49.071-16.254,77.314-27.176,49.859-19.282,111.14-47.009,176.751-66.365,9.793-2.88,19.922-5.693,30.272-8.4,24.21-6.323,48.572-11.924,71.413-19.633,23.046-7.832,44.816-17.927,63.026-32.825A100.718,100.718,0,0,0,898.653,695.7c19.674-24.4,25.153-51.265,25.294-77.523.125-23.487-3.249-45.8-2.262-65.279,1.848-36.492,5.04-50.729,13.986-66.045,29.1-49.838,171.705-22.782,269.754,22.915,34.409,16.036,68.99,33.084,104.7,49.463,73.245,33.635,149.592,60.665,225.164,62.984,31.768.974,61.947-3.508,89.815-13.064,75.357-25.836,130.416-82.376,184.415-152.277,31.612-40.922,61.434-86.05,84.916-130.584,11.876-22.585,22.3-44.79,28.974-67.27,8.15-27.448,11.9-51.877,11.3-74.6-2.57-98.5-89.455-163.238-179.626-211.915" transform="translate(244.6 83.377)" fill="none" stroke="rgba(255,255,255,0.53)" stroke-miterlimit="10" stroke-width="1"/>
          <path id="Path_58" data-name="Path 58" d="M-28.618,1171.477c-16.627,19.123-33.82-3.054-23.185-38.841a142.616,142.616,0,0,1,14.236-32.047c17.153-29,44.944-55.715,78-82.138,13.037-10.42,26.21-20.2,39.6-29.751,112.184-80.083,232.763-85.96,320.027-101.948,25.294-4.635,47.882-10.064,69.47-18.186,22.631-8.516,47.244-18.529,74.689-30.455,48.419-21.045,108.908-50.424,174.649-69.976,9.8-2.905,19.949-5.711,30.332-8.368,24.289-6.213,48.738-11.476,71.716-18.811,23.174-7.458,45.149-17.14,63.626-31.76a99.08,99.08,0,0,0,14.978-14.476c19.925-24.086,25.635-51,26.153-77.357.461-23.512-2.314-45.9-.458-65.146,3.519-36.489,8.5-48.774,18.1-62.23,31.117-43.624,170.133-13.912,268.157,32.953,34.243,16.372,68.81,33.545,104.648,49.886,73.439,33.538,150.4,59.571,225.911,60.473,31.689.379,61.724-4.714,89.354-14.919,74.531-27.53,127.865-85.4,181.212-155.654,31.307-41.232,61.126-86.442,85.208-130.776,12.176-22.482,23.059-44.488,30.31-66.77,8.826-27.127,13.4-51.347,13.686-74.034,1.227-98.1-80.959-165.623-168.993-217.087" transform="translate(251.806 85.811)" fill="none" stroke="rgba(255,255,255,0.53)" stroke-miterlimit="10" stroke-width="1"/>
          <path id="Path_59" data-name="Path 59" d="M-31.179,1179.814c-13.672,19.464-27.639-1.476-14.855-35.954a154.646,154.646,0,0,1,15.823-30.973c18.4-28.145,46.953-53.783,80.509-79.64,13.2-10.166,26.516-19.784,40.038-29.285,112.694-79.181,232.221-89.376,316.876-109.749,24.528-5.9,46.222-12.59,67-21.849,21.737-9.69,45.421-20.8,72.065-33.735,46.98-22.808,106.673-53.839,172.547-73.588,9.81-2.928,19.974-5.724,30.389-8.335,24.37-6.1,48.91-11.027,72.024-17.988,23.3-7.079,45.475-16.349,64.223-30.691a97.519,97.519,0,0,0,15.209-14.276c20.173-23.773,26.115-50.729,27.009-77.2.8-23.533-1.366-46,1.349-65.01,5.212-36.492,11.92-46.768,22.223-58.415,32.989-37.3,168.56-5.047,266.557,42.989,34.079,16.7,68.633,34.009,104.59,50.312,73.635,33.44,151.216,58.479,226.661,57.964,31.613-.218,61.5-5.921,88.893-16.779,73.706-29.215,125.311-88.425,178.01-159.028,31-41.539,60.818-86.831,85.5-130.971,12.475-22.377,23.817-44.186,31.643-66.268,9.5-26.8,14.912-50.816,16.073-73.47,5.013-97.7-72.463-168.008-158.36-222.26" transform="translate(258.728 88.245)" fill="none" stroke="rgba(255,255,255,0.53)" stroke-miterlimit="10" stroke-width="1"/>
          <path id="Path_60" data-name="Path 60" d="M-33.4,1188.152c-10.715,19.8-21.454.105-6.523-33.069a170.81,170.81,0,0,1,17.412-29.9c19.647-27.289,48.956-51.852,83.011-77.139,13.353-9.915,26.824-19.372,40.479-28.818,113.2-78.282,231.679-92.788,313.728-117.551,23.76-7.171,44.562-15.114,64.525-25.513,20.843-10.861,43.6-23.072,69.44-37.014,45.538-24.568,104.438-57.255,170.446-77.2,9.815-2.957,20-5.742,30.449-8.3,24.452-5.985,49.076-10.576,72.326-17.166,23.43-6.7,45.808-15.557,64.822-29.623a95.989,95.989,0,0,0,15.441-14.079c20.421-23.458,26.6-50.46,27.868-77.026,1.128-23.561-.409-46.1,3.154-64.88,6.923-36.5,15.264-44.721,26.341-54.6,34.63-30.888,166.99,3.815,264.96,53.027,33.916,17.038,68.453,34.47,104.53,50.737,73.831,33.34,152.028,57.388,227.413,55.451,31.531-.81,61.273-7.125,88.43-18.636,72.882-30.9,122.757-91.448,174.8-162.4a1442.127,1442.127,0,0,0,85.794-131.166c12.775-22.272,24.575-43.881,32.978-65.766,10.17-26.484,16.414-50.283,18.458-72.906,8.788-97.3-63.967-170.4-147.73-227.433" transform="translate(265.303 90.679)" fill="none" stroke="rgba(255,255,255,0.53)" stroke-miterlimit="10" stroke-width="1"/>
          <path id="Path_61" data-name="Path 61" d="M-35.175,1196.492c-7.76,20.138-15.275,1.681,1.807-30.184a192.736,192.736,0,0,1,19-28.829c20.9-26.43,50.962-49.919,85.519-74.638,13.511-9.664,27.126-18.962,40.921-28.352,113.705-77.39,231.134-96.2,310.574-125.35,23-8.44,42.905-17.637,62.056-29.182,19.949-12.026,41.774-25.341,66.815-40.289,44.1-26.328,102.205-60.672,168.344-80.813,9.823-2.98,20.026-5.757,30.506-8.268,24.534-5.875,49.248-10.13,72.632-16.346,23.558-6.323,46.141-14.765,65.422-28.554a94.724,94.724,0,0,0,15.675-13.881c20.666-23.146,27.072-50.191,28.723-76.86,1.461-23.587.561-46.2,4.958-64.746,8.657-36.5,18.513-42.653,30.46-50.785,35.966-24.483,165.42,12.67,263.359,63.063,33.755,17.368,68.276,34.931,104.473,51.162,74.027,33.245,152.841,56.3,228.162,52.94,31.452-1.4,61.053-8.327,87.967-20.494,72.064-32.574,120.2-94.474,171.6-165.777,30.392-42.156,60.205-87.615,86.086-131.36,13.078-22.167,25.327-43.578,34.314-65.266,10.838-26.161,17.916-49.75,20.841-72.34,12.555-96.89-55.471-172.781-137.094-232.606" transform="translate(271.444 93.112)" fill="none" stroke="rgba(255,255,255,0.53)" stroke-miterlimit="10" stroke-width="1"/>
          <path id="Path_62" data-name="Path 62" d="M-36.39,1204.829c-4.805,20.476-9.093,3.259,10.137-27.3a222.773,222.773,0,0,1,20.587-27.752c22.157-25.575,52.963-47.993,88.024-72.14,13.667-9.413,27.429-18.552,41.36-27.883,114.207-76.5,230.591-99.611,307.426-133.154a343.844,343.844,0,0,0,59.584-32.846c19.055-13.19,39.951-27.612,64.19-43.568,42.663-28.083,99.97-64.088,166.24-84.423,9.834-3.005,20.053-5.772,30.569-8.237,24.613-5.76,49.414-9.682,72.934-15.524,23.686-5.944,46.473-13.971,66.022-27.486a93.511,93.511,0,0,0,15.907-13.684C927.5,668,934.14,640.908,936.171,614.139c1.794-23.612,1.54-46.3,6.762-64.616,10.412-36.5,20.655-42.871,34.578-46.968,32.916-24.109,163.855,21.521,261.762,73.1,33.592,17.7,68.1,35.393,104.413,51.587,74.221,33.146,153.656,55.213,228.915,50.429,31.37-2,60.829-9.528,87.5-22.352,71.244-34.247,117.646-97.5,168.4-169.153,30.083-42.466,59.9-88,86.377-131.555,13.378-22.062,26.082-43.276,35.647-64.764,11.505-25.841,19.415-49.22,23.228-71.777,16.308-96.485-46.975-175.167-126.464-237.779" transform="translate(277.021 95.546)" fill="none" stroke="rgba(255,255,255,0.53)" stroke-miterlimit="10" stroke-width="1"/>
          <path id="Path_63" data-name="Path 63" d="M-36.806,1213.166c-1.848,20.814-2.908,4.837,18.469-24.411a266.264,266.264,0,0,1,22.174-26.681c23.419-24.714,54.964-46.066,90.529-69.642,13.825-9.162,27.734-18.139,41.8-27.414C250.872,989.4,366.215,962,440.444,924.061a337.919,337.919,0,0,0,57.111-36.51c18.167-14.353,38.127-29.879,61.568-46.848,41.221-29.84,97.735-67.5,164.136-88.033,9.843-3.031,20.08-5.79,30.626-8.206,24.695-5.647,49.586-9.231,73.242-14.7,23.812-5.567,46.8-13.182,66.619-26.42a92.535,92.535,0,0,0,16.139-13.484c21.157-22.521,28.028-49.658,30.441-76.529,2.123-23.638,2.529-46.4,8.567-64.482,12.187-36.494,24.052-41.144,38.7-43.153,34.614-18.529,162.291,30.371,260.162,83.137,33.433,18.027,67.919,35.856,104.356,52.013,74.417,33.048,154.468,54.132,229.664,47.918,31.291-2.585,60.609-10.727,87.042-24.209,70.424-35.918,115.087-100.531,165.2-172.528,29.776-42.776,59.589-88.4,86.669-131.75,13.677-21.957,26.832-42.974,36.982-64.262,12.168-25.523,20.912-48.69,25.614-71.213,20.053-96.083-38.479-177.552-115.831-242.952" transform="translate(281.795 97.98)" fill="none" stroke="rgba(255,255,255,0.53)" stroke-miterlimit="10" stroke-width="1"/>
          <path id="Path_64" data-name="Path 64" d="M-35.777,1221.5c1.107,21.153,3.274,6.416,26.8-21.527a328.542,328.542,0,0,1,23.763-25.605c24.681-23.853,56.962-44.142,93.033-67.144,13.98-8.913,28.037-17.732,42.243-26.948,115.2-74.738,229.506-106.421,301.124-148.754a334.712,334.712,0,0,0,54.642-40.176c17.278-15.511,36.306-32.149,58.943-50.127,39.784-31.6,95.5-70.918,162.034-91.646,9.848-3.057,20.1-5.806,30.686-8.17,24.777-5.537,49.752-8.785,73.545-13.879,23.942-5.188,47.138-12.388,67.218-25.352a91.648,91.648,0,0,0,16.373-13.287c21.4-22.211,28.5-49.389,31.3-76.363,2.45-23.661,3.527-46.486,10.374-64.349,13.977-36.482,27.448-39.418,42.813-39.338,36.312-12.949,160.729,39.215,258.562,93.175,33.275,18.352,67.744,36.317,104.3,52.435,74.613,32.951,155.28,53.05,230.414,45.408,31.215-3.174,60.388-11.924,86.582-26.067,69.609-37.581,112.528-103.559,162-175.9,29.465-43.089,59.279-88.786,86.961-131.944,13.978-21.852,27.581-42.671,38.318-63.76,12.83-25.2,22.405-48.159,28-70.649,23.787-95.681-29.983-179.937-105.2-248.124" transform="translate(285.127 100.413)" fill="none" stroke="rgba(255,255,255,0.53)" stroke-miterlimit="10" stroke-width="1"/>
          <path id="Path_65" data-name="Path 65" d="M-34.178,1229.843c4.064,21.488,9.455,7.991,35.131-18.641,7.155-7.476,15.577-15.877,25.349-24.535,25.946-22.987,58.962-42.218,95.541-64.644,14.133-8.665,28.339-17.322,42.684-26.482C280.215,1021.677,393.492,985.718,462.5,938.986a334.7,334.7,0,0,0,52.167-43.84c16.395-16.669,34.488-34.416,56.321-53.4,38.348-33.351,93.265-74.336,159.933-95.258,9.856-3.082,20.129-5.821,30.743-8.14,24.858-5.421,49.924-8.334,73.85-13.056,24.071-4.812,47.471-11.593,67.818-24.283a90.717,90.717,0,0,0,16.605-13.087c21.645-21.9,28.974-49.123,32.155-76.2,2.78-23.686,4.536-46.573,12.178-64.216,15.79-36.458,31.817-29.912,46.931-35.523,36.1-13.4,159.173,48.054,256.965,103.211,33.114,18.677,67.564,36.781,104.239,52.863,74.81,32.851,156.092,51.972,231.166,42.894,31.133-3.761,60.167-13.12,86.119-27.922,68.8-39.243,109.965-106.59,158.793-179.279,29.154-43.4,58.97-89.178,87.252-132.139,14.28-21.747,28.328-42.372,39.651-63.258,13.492-24.885,23.9-47.629,30.384-70.086,27.513-95.284-21.487-182.323-94.565-253.3" transform="translate(287.886 102.847)" fill="none" stroke="rgba(255,255,255,0.53)" stroke-miterlimit="10" stroke-width="1"/>
          <path id="Path_66" data-name="Path 66" d="M-32.578,1238.18c7.019,21.826,15.637,9.569,43.461-15.757,7.757-7.107,16.711-15.15,26.935-23.461,27.216-22.116,60.96-40.3,98.046-62.143,14.291-8.419,28.644-16.915,43.126-26.015,116.175-72.991,228.427-113.223,294.825-164.357,19.17-14.763,34.641-30.2,49.695-47.5,15.512-17.827,32.665-36.684,53.7-56.683,36.914-35.1,91.033-77.751,157.831-98.871,9.864-3.105,20.156-5.836,30.8-8.106,24.937-5.309,50.09-7.886,74.152-12.234,24.2-4.433,47.8-10.8,68.418-23.215a89.792,89.792,0,0,0,16.837-12.89c21.887-21.591,29.448-48.854,33.011-76.032,3.11-23.712,5.552-46.656,13.986-64.083,17.622-36.422,34-28.406,51.05-31.708,38.939-7.54,157.616,56.891,255.365,113.249,32.956,19,67.387,37.242,104.182,53.286,75.005,32.754,156.9,50.9,231.916,40.386,31.054-4.35,59.949-14.317,85.658-29.782,67.987-40.9,107.4-109.621,155.591-182.653,28.841-43.714,58.662-89.568,87.544-132.334,14.58-21.642,29.075-42.072,40.986-62.758,14.149-24.568,25.387-47.1,32.768-69.519,31.229-94.889-12.99-184.71-83.935-258.47" transform="translate(290.647 105.281)" fill="none" stroke="rgba(255,255,255,0.53)" stroke-miterlimit="10" stroke-width="1"/>
          <path id="Path_67" data-name="Path 67" d="M-30.979,1246.518c9.973,22.167,21.822,11.148,51.794-12.869,8.357-6.741,17.848-14.424,28.524-22.388,28.484-21.245,62.955-38.377,100.551-59.645,14.443-8.17,28.944-16.507,43.568-25.549,116.66-72.125,227.89-116.621,291.671-172.156,18.407-16.028,33-32.718,47.225-51.17a702.175,702.175,0,0,1,51.071-59.963c35.48-36.855,88.8-81.167,155.73-102.481a312.779,312.779,0,0,1,30.86-8.073c25.019-5.2,50.262-7.438,74.46-11.414,24.324-4.053,48.136-10,69.015-22.147a89.139,89.139,0,0,0,17.068-12.693c22.13-21.283,29.923-48.587,33.87-75.866,3.437-23.738,6.574-46.73,15.79-63.949,19.464-36.374,36.89-31.957,55.171-27.893,40.488,9,156.06,65.725,253.765,123.287,32.8,19.323,67.208,37.7,104.121,53.709,75.2,32.656,157.72,49.822,232.668,37.875,30.975-4.937,59.731-15.508,85.194-31.639,67.18-42.556,104.836-112.649,152.388-186.027,28.53-44.027,58.354-89.957,87.838-132.529,14.877-21.539,29.816-41.775,42.316-62.256,14.806-24.253,26.878-46.571,35.153-68.956,34.94-94.5-4.492-187.1-73.3-263.643" transform="translate(293.407 107.715)" fill="none" stroke="rgba(255,255,255,0.53)" stroke-miterlimit="10" stroke-width="1"/>
          <path id="Path_68" data-name="Path 68" d="M-29.379,1254.855c12.928,22.505,28,12.728,60.121-9.984,8.959-6.372,18.987-13.7,30.113-21.314,29.754-20.368,64.951-36.461,103.059-57.145,14.6-7.925,29.244-16.1,44.006-25.08,117.142-71.267,227.358-120.021,288.523-179.961,17.643-17.292,31.356-35.226,44.753-54.836,13.757-20.135,29.026-41.216,48.447-63.237,34.047-38.608,86.563-84.584,153.628-106.093a292.344,292.344,0,0,1,30.92-8.042c25.1-5.083,50.428-6.989,74.763-10.592,24.455-3.674,48.471-9.208,69.614-21.081A88.262,88.262,0,0,0,935.872,685c22.367-20.973,30.391-48.318,34.725-75.7,3.762-23.763,7.6-46.8,17.594-63.816,21.323-36.312,40.13-30.489,59.289-24.078,41.681,13.945,154.509,74.554,252.165,133.323,32.643,19.646,67.03,38.167,104.064,54.137,75.4,32.556,158.535,48.751,233.418,35.362,30.9-5.524,59.516-16.7,84.734-33.494,66.376-44.209,102.271-115.685,149.186-189.4,28.216-44.339,58.046-90.349,88.13-132.723,15.177-21.434,30.558-41.475,43.652-61.754,15.46-23.94,28.364-46.046,37.538-68.392,38.64-94.118,4-189.481-62.669-268.816" transform="translate(296.168 110.148)" fill="none" stroke="rgba(255,255,255,0.53)" stroke-miterlimit="10" stroke-width="1"/>
          <path id="Path_69" data-name="Path 69" d="M-27.779,1263.195c15.883,22.841,34.183,14.3,68.45-7.1,9.562-6.008,20.124-12.967,31.7-20.243,31.024-19.49,66.943-34.544,105.561-54.644,14.754-7.681,29.549-15.7,44.451-24.614C340,1086.186,449.212,1033.177,507.758,968.833c16.88-18.552,29.718-37.734,42.281-58.5,12.884-21.293,27.208-43.484,45.822-66.517,32.618-40.36,84.33-88,151.527-109.706a275.986,275.986,0,0,1,30.98-8.009c25.18-4.97,50.6-6.538,75.066-9.767,24.583-3.3,48.806-8.416,70.214-20.015a87.767,87.767,0,0,0,17.534-12.293c22.61-20.668,30.863-48.054,35.584-75.535,4.089-23.791,8.63-46.86,19.4-63.683,23.19-36.233,43.451-29.026,63.408-20.263,43.077,18.913,152.964,83.38,250.568,143.361,32.488,19.964,66.851,38.626,104.007,54.559,75.589,32.459,159.347,47.683,234.167,32.854,30.817-6.108,59.3-17.894,84.268-35.354,65.578-45.856,99.7-118.716,145.986-192.778,27.9-44.652,57.739-90.741,88.422-132.918,15.476-21.329,31.3-41.18,44.988-61.252,16.111-23.628,29.846-45.52,39.923-67.828,42.335-93.741,12.5-191.866-52.036-273.989" transform="translate(298.929 112.582)" fill="none" stroke="rgba(255,255,255,0.53)" stroke-miterlimit="10" stroke-width="1"/>
          <path id="Path_70" data-name="Path 70" d="M-26.18,1271.532c18.84,23.179,40.368,15.882,76.783-4.215,10.161-5.639,21.258-12.237,33.289-19.167,32.294-18.608,68.938-32.631,108.068-52.148,14.907-7.433,29.849-15.288,44.889-24.145C354.949,1102.3,463.3,1045.147,519.071,976.3c16.163-19.787,28.083-40.248,39.811-62.166,12.012-22.449,25.39-45.748,43.2-69.8,31.185-42.11,82.092-91.415,149.423-113.316a260.069,260.069,0,0,1,31.038-7.976c25.262-4.858,50.766-6.093,75.371-8.947,24.711-2.921,49.139-7.62,70.814-18.946a87.266,87.266,0,0,0,17.766-12.1c22.849-20.361,31.332-47.788,36.442-75.369,4.413-23.817,9.663-46.914,21.2-63.55,25.068-36.141,46.83-27.547,67.526-16.448,44.628,23.93,151.42,92.2,248.968,153.4,32.335,20.284,66.673,39.09,103.95,54.985,75.785,32.364,160.165,46.617,234.917,30.343,30.741-6.692,59.088-19.085,83.807-37.212,64.781-47.5,97.135-121.75,142.78-196.155,27.587-44.965,57.433-91.128,88.716-133.11,15.779-21.224,32.041-40.886,46.32-60.749,16.763-23.317,31.332-45,42.308-67.265,46.026-93.37,21-194.252-41.4-279.161" transform="translate(301.688 115.016)" fill="none" stroke="rgba(255,255,255,0.53)" stroke-miterlimit="10" stroke-width="1"/>
          <path id="Path_71" data-name="Path 71" d="M-24.58,1279.871c21.795,23.517,46.549,17.461,85.113-1.327,10.761-5.273,22.394-11.506,34.878-18.1,33.564-17.722,70.931-30.719,110.573-49.648,15.059-7.189,30.149-14.883,45.328-23.679C369.888,1118.414,477.229,1057,530.385,983.759c15.4-21.055,26.447-42.759,37.339-65.83,11.143-23.607,23.572-48.016,40.575-73.076,29.756-43.86,79.86-94.83,147.321-116.928a246.774,246.774,0,0,1,31.1-7.942c25.341-4.745,50.935-5.642,75.676-8.124,24.837-2.542,49.471-6.823,71.411-17.878a86.807,86.807,0,0,0,18-11.9c23.089-20.056,31.8-47.519,37.3-75.2,4.735-23.843,10.7-46.963,23.008-63.419,26.952-36.028,50.254-26.038,71.645-12.631,46.288,29.013,149.878,101.02,247.368,163.435,32.182,20.6,66.5,39.551,103.893,55.41C1511,781.939,1596,795.226,1670.683,777.5c30.664-7.274,58.878-20.274,83.346-39.067,63.988-49.151,94.563-124.786,139.578-199.532,27.271-45.28,57.125-91.52,89.008-133.3,16.079-21.119,32.779-40.591,47.656-60.247,17.414-23.007,32.814-44.478,44.693-66.7,49.711-93.006,29.49-196.639-30.77-284.337" transform="translate(304.449 117.448)" fill="none" stroke="rgba(255,255,255,0.53)" stroke-miterlimit="10" stroke-width="1"/>
          <path id="Path_72" data-name="Path 72" d="M-22.981,1288.208c24.752,23.855,52.734,19.039,93.445,1.558,11.363-4.9,23.531-10.771,36.464-17.022,34.834-16.833,72.923-28.811,113.081-47.147,15.212-6.946,30.446-14.478,45.77-23.213C384.824,1134.522,491.164,1068.851,541.7,991.22c14.637-22.321,24.815-45.272,34.867-69.494,10.276-24.768,21.756-50.283,37.95-76.352,28.331-45.613,77.625-98.248,145.22-120.541a234.541,234.541,0,0,1,31.155-7.912c25.425-4.632,51.1-5.193,75.982-7.3,24.967-2.163,49.807-6.026,72.01-16.81a86.491,86.491,0,0,0,18.232-11.7c23.324-19.754,32.267-47.255,38.157-75.038,5.059-23.871,11.734-47,24.812-63.286,28.841-35.9,53.7-24.506,75.763-8.816,48.027,34.158,148.341,109.836,245.771,173.471,32.03,20.922,66.316,40.014,103.833,55.835,76.175,32.167,161.8,44.488,236.419,25.321,30.585-7.858,58.665-21.462,82.883-40.927,63.2-50.791,91.99-127.819,136.375-202.906,26.954-45.595,56.817-91.909,89.3-133.5,16.379-21.014,33.515-40.3,48.992-59.748,18.061-22.7,34.295-43.955,47.078-66.135,53.391-92.647,37.985-199.025-20.14-289.51" transform="translate(307.209 119.882)" fill="none" stroke="rgba(255,255,255,0.53)" stroke-miterlimit="10" stroke-width="1"/>
          <path id="Path_73" data-name="Path 73" d="M-21.381,1296.548c27.707,24.194,58.913,20.615,101.775,4.443,11.963-4.54,24.668-10.038,38.053-15.949,36.1-15.944,74.913-26.9,115.583-44.649a513.8,513.8,0,0,0,46.211-22.746C399.761,1150.625,505.1,1080.7,553.013,998.683c13.876-23.589,23.185-47.785,32.4-73.16,9.409-25.926,19.941-52.548,35.325-79.632,26.905-47.365,75.39-101.663,143.118-124.151a223.2,223.2,0,0,1,31.215-7.878c25.5-4.519,51.273-4.745,76.284-6.479,25.1-1.788,50.142-5.229,72.61-15.744a86.151,86.151,0,0,0,18.464-11.5c23.564-19.449,32.736-46.991,39.013-74.872,5.383-23.9,12.773-47.037,26.619-63.153,30.732-35.767,57.166-22.949,79.882-5,49.817,39.361,146.808,118.647,244.17,183.509,31.88,21.237,66.142,40.476,103.776,56.258,76.371,32.07,162.623,43.43,237.168,22.81,30.511-8.439,58.458-22.651,82.422-42.784,62.413-52.433,89.416-130.856,133.172-206.281,26.635-45.91,56.509-92.3,89.591-133.694,16.678-20.909,34.254-40.009,50.325-59.245,18.712-22.393,35.778-43.435,49.463-65.571,57.071-92.3,46.484-201.41-9.507-294.682" transform="translate(309.97 122.315)" fill="none" stroke="rgba(255,255,255,0.53)" stroke-miterlimit="10" stroke-width="1"/>
          <path id="Path_74" data-name="Path 74" d="M-19.781,1304.885c30.661,24.532,65.1,22.193,110.1,7.328,12.563-4.171,25.8-9.3,39.64-14.875,37.372-15.05,76.908-25,118.091-42.149a469.777,469.777,0,0,0,46.653-22.28c119.985-66.186,224.325-140.353,269.62-226.764,13.113-24.855,21.555-50.3,29.923-76.826,8.548-27.086,18.129-54.813,32.7-82.909,25.482-49.118,73.158-105.078,141.017-127.763a213.822,213.822,0,0,1,31.272-7.845c25.586-4.407,51.442-4.3,76.589-5.657,25.224-1.409,50.477-4.432,73.209-14.676a85.988,85.988,0,0,0,18.7-11.3c23.8-19.146,33.2-46.725,39.872-74.705,5.7-23.925,13.808-47.065,28.424-63.019,32.626-35.613,60.638-21.368,84-1.186,51.641,44.613,145.277,127.458,242.573,193.544,31.727,21.552,65.962,40.939,103.715,56.686,76.568,31.97,163.447,42.369,237.921,20.3,30.432-9.019,58.248-23.838,81.959-44.639,61.633-54.075,86.841-133.894,129.969-209.657,26.314-46.225,56.2-92.691,89.883-133.889,16.981-20.8,34.99-39.72,51.66-58.743,19.358-22.09,37.255-42.92,51.848-65.008,60.748-91.953,54.977-203.8,1.126-299.855" transform="translate(312.731 124.749)" fill="none" stroke="rgba(255,255,255,0.53)" stroke-miterlimit="10" stroke-width="1"/>
          <path id="Path_75" data-name="Path 75" d="M-18.182,1313.222c33.619,24.87,71.28,23.771,118.437,10.212,13.165-3.8,26.938-8.565,41.229-13.8,38.637-14.156,78.9-23.1,120.6-39.651a433.091,433.091,0,0,0,47.092-21.813c120.454-65.356,223.8-143.763,266.472-234.566,12.353-26.12,19.925-52.817,27.451-80.49,7.684-28.25,16.37-57.058,30.078-86.188,24.155-50.826,70.923-108.494,138.915-131.373a204.412,204.412,0,0,1,31.332-7.814c25.665-4.294,51.611-3.848,76.895-4.835,25.349-1.03,50.81-3.633,73.806-13.607a85.951,85.951,0,0,0,18.93-11.1c24.035-18.847,33.665-46.461,40.727-74.541,6.027-23.953,14.844-47.088,30.231-62.886,34.518-35.446,64.117-19.769,88.116,2.629,53.486,49.909,143.75,136.264,240.973,203.583,31.58,21.867,65.785,41.4,103.658,57.109,76.764,31.872,164.269,41.313,238.67,17.789,30.359-9.6,58.044-25.026,81.5-46.5,60.854-55.712,84.262-136.928,126.767-213.032,25.995-46.54,55.893-93.083,90.174-134.084,17.281-20.7,35.726-39.433,52.993-58.241,20.007-21.788,38.738-42.4,54.236-64.444C2185.515,213.96,2184.567,99.395,2132.85.547" transform="translate(315.49 127.183)" fill="none" stroke="rgba(255,255,255,0.53)" stroke-miterlimit="10" stroke-width="1"/>
          <path id="Path_76" data-name="Path 76" d="M-16.582,1321.562c36.573,25.206,77.462,25.349,126.767,13.1,13.765-3.436,28.072-7.83,42.815-12.728,39.9-13.256,80.89-21.2,123.1-37.15a402.434,402.434,0,0,0,47.536-21.344c120.917-64.531,223.264-147.176,263.319-242.367,11.592-27.389,18.3-55.336,24.981-84.157,6.822-29.413,14.552-59.33,27.456-89.465C662.113,794.858,708.08,735.536,776.2,712.459a196.325,196.325,0,0,1,31.392-7.779c25.747-4.181,51.78-3.4,77.2-4.015,25.48-.651,51.145-2.834,74.406-12.539a85.788,85.788,0,0,0,19.162-10.907c24.272-18.544,34.131-46.2,41.586-74.375,6.345-23.981,15.877-47.106,32.035-62.753,36.41-35.267,67.594-18.15,92.235,6.444,55.345,55.241,142.227,145.067,239.376,213.621,31.43,22.18,65.6,41.862,103.6,57.531,76.96,31.775,165.1,40.258,239.42,15.278,30.285-10.179,57.839-26.213,81.038-48.357,60.08-57.35,81.681-139.964,123.564-216.406,25.673-46.858,55.585-93.472,90.466-134.276,17.581-20.6,36.459-39.151,54.329-57.742,20.65-21.486,40.215-41.89,56.618-63.88,68.1-91.284,71.972-208.566,22.391-310.2" transform="translate(318.251 129.617)" fill="none" stroke="rgba(255,255,255,0.53)" stroke-miterlimit="10" stroke-width="1"/>
          <path id="Path_77" data-name="Path 77" d="M-14.983,1329.9c39.531,25.544,83.643,26.927,135.1,15.982,14.364-3.069,29.206-7.092,44.4-11.655,41.166-12.354,82.88-19.3,125.605-34.652A375.91,375.91,0,0,0,338.1,1278.7c121.383-63.709,222.738-150.589,260.171-250.169,10.829-28.657,16.67-57.854,22.509-87.82,5.958-30.578,12.732-61.6,24.831-92.745,21.291-54.349,66.453-115.327,134.707-138.6a188.966,188.966,0,0,1,31.452-7.748c25.829-4.069,51.949-2.952,77.5-3.192,25.608-.274,51.48-2.034,75.006-11.47a85.78,85.78,0,0,0,19.393-10.71c24.51-18.245,34.595-45.933,42.445-74.208,6.664-24.009,16.91-47.117,33.839-62.62,38.3-35.077,71.075-16.52,96.353,10.259,57.21,60.6,140.708,153.868,237.776,223.657,31.286,22.493,65.427,42.326,103.541,57.959,77.154,31.675,165.921,39.2,240.172,12.764,30.212-10.758,57.635-27.4,80.571-50.214,59.312-58.987,79.105-143,120.364-219.78,25.349-47.173,55.277-93.864,90.758-134.471,17.88-20.491,37.195-38.867,55.664-57.242,21.3-21.186,41.692-41.378,59-63.314,71.771-90.959,80.465-210.954,33.022-315.374" transform="translate(321.011 132.05)" fill="none" stroke="rgba(255,255,255,0.53)" stroke-miterlimit="10" stroke-width="1"/>
          <path id="Path_78" data-name="Path 78" d="M-13.383,1338.237c42.485,25.882,89.825,28.506,143.429,18.87,14.967-2.7,30.337-6.357,45.991-10.581,42.431-11.455,84.875-17.4,128.113-32.154a353.7,353.7,0,0,0,48.417-20.41c121.847-62.889,222.207-154,257.017-257.968,10.069-29.925,15.046-60.375,20.039-91.487,5.1-31.744,10.914-63.872,22.206-96.024,19.862-56.11,64.217-118.742,132.605-142.208a181.907,181.907,0,0,1,31.509-7.717c25.91-3.953,52.118-2.5,77.808-2.37,25.736.1,51.815-1.235,75.605-10.4a85.779,85.779,0,0,0,19.625-10.512c24.744-17.945,35.058-45.669,43.3-74.041,6.983-24.04,17.94-47.124,35.644-62.487,40.19-34.878,74.556-14.878,100.472,14.073,59.08,65.991,139.19,162.666,236.179,233.695A483.672,483.672,0,0,0,1508.059,844.9c77.35,31.578,166.753,38.152,240.922,10.253,30.141-11.335,57.433-28.585,80.111-52.069,58.545-60.626,76.36-146.115,117.161-223.157,24.927-47.537,54.969-94.254,91.052-134.665,18.178-20.386,37.925-38.582,56.994-56.74,21.942-20.889,43.175-40.865,61.391-62.75,75.442-90.639,88.961-213.339,43.655-320.547" transform="translate(323.772 134.484)" fill="none" stroke="rgba(255,255,255,0.53)" stroke-miterlimit="10" stroke-width="1"/>
          <path id="Path_79" data-name="Path 79" d="M-11.783,1346.574c45.44,26.22,96.007,30.084,151.759,21.755,15.566-2.334,31.471-5.619,47.577-9.508,43.693-10.553,86.868-15.506,130.618-29.653a334.16,334.16,0,0,0,48.858-19.943c122.31-62.077,221.678-157.409,253.868-265.769,9.306-31.191,13.416-62.9,17.567-95.151,4.236-32.913,9.1-66.143,19.581-99.3,18.431-57.867,61.985-122.157,130.5-145.821a175.5,175.5,0,0,1,31.569-7.681c25.989-3.843,52.287-2.055,78.113-1.548,25.861.482,52.164-.4,76.2-9.339a85.177,85.177,0,0,0,19.859-10.31c24.978-17.648,35.519-45.408,44.159-73.878,7.3-24.068,18.968-47.127,37.448-62.356,42.074-34.665,78.031-13.223,104.59,17.891,60.952,71.4,137.68,171.459,234.579,243.731A464,464,0,0,0,1518.493,858.5c77.546,31.48,167.584,37.1,241.674,7.745,30.067-11.914,57.232-29.774,79.648-53.929,57.782-62.264,73.8-149.141,113.959-226.531,24.616-47.847,54.661-94.646,91.343-134.86,18.48-20.281,38.658-38.3,58.33-56.238,22.588-20.594,44.652-40.358,63.773-62.187,79.119-90.326,97.46-215.724,54.288-325.72" transform="translate(326.533 136.918)" fill="none" stroke="rgba(255,255,255,0.53)" stroke-miterlimit="10" stroke-width="1"/>
          <path id="Path_80" data-name="Path 80" d="M-10.184,1354.911c48.4,26.558,102.192,31.662,160.091,24.642,16.166-1.968,32.6-4.881,49.166-8.437,44.949-9.649,88.86-13.612,133.123-27.153a317.431,317.431,0,0,0,49.3-19.477c122.768-61.264,221.147-160.819,250.718-273.571,8.542-32.456,11.849-65.412,15.095-98.817,3.432-34.073,7.275-68.413,16.957-102.578,17-59.63,59.75-125.575,128.4-149.433a169.552,169.552,0,0,1,31.626-7.65c26.071-3.73,52.456-1.6,78.418-.725,25.992.861,52.5.4,76.8-8.271A85.475,85.475,0,0,0,999.6,673.329c25.213-17.35,35.979-45.144,45.015-73.711,7.624-24.1,20-47.127,39.256-62.223,43.955-34.447,81.509-11.56,108.712,21.706,62.819,76.826,136.168,180.252,232.976,253.769,30.852,23.428,64.893,43.709,103.367,59.233,77.742,31.383,168.481,36.187,242.423,5.232a216.063,216.063,0,0,0,79.187-55.787c57.021-63.9,71.239-152.167,110.756-229.906,24.305-48.157,54.353-95.035,91.635-135.055,18.78-20.176,39.392-38.024,59.666-55.735,23.231-20.3,46.132-39.848,66.158-61.623,82.793-90.016,105.956-218.11,64.92-330.892" transform="translate(329.292 139.351)" fill="none" stroke="rgba(255,255,255,0.53)" stroke-miterlimit="10" stroke-width="1"/>
          <path id="Path_81" data-name="Path 81" d="M-8.584,1363.251c51.349,26.9,108.371,33.238,168.418,27.525,16.771-1.6,33.736-4.14,50.755-7.361,46.209-8.745,90.853-11.724,135.631-24.655a302.7,302.7,0,0,0,49.739-19.011c123.229-60.46,220.618-164.229,247.567-281.37,7.785-33.725,10.208-67.939,12.625-102.483,2.557-35.247,5.457-70.683,14.332-105.857C686.051,788.649,728,721.048,796.783,697a163.876,163.876,0,0,1,31.686-7.617c26.153-3.617,52.625-1.158,78.721.095,26.12,1.237,52.829,1.191,77.4-7.2a86.275,86.275,0,0,0,20.323-9.915c25.414-17.1,36.393-44.9,45.873-73.544,7.9-24.14,21.018-47.124,41.06-62.089,45.833-34.219,84.982-9.895,112.83,25.521,64.689,82.268,134.663,189.043,231.379,263.8,30.708,23.738,64.716,44.173,103.309,59.658,77.933,31.286,169.3,35.106,243.17,2.721a216.86,216.86,0,0,0,78.726-57.642c56.264-65.541,68.677-155.2,107.55-233.282,24-48.467,54.048-95.427,91.93-135.249,19.08-20.071,40.128-37.745,61-55.233,23.877-20.01,47.612-39.341,68.546-61.059,86.47-89.714,114.449-220.495,75.551-336.065" transform="translate(332.054 141.785)" fill="none" stroke="rgba(255,255,255,0.53)" stroke-miterlimit="10" stroke-width="1"/>
          <path id="Path_82" data-name="Path 82" d="M-6.985,1371.588c54.307,27.235,114.556,34.816,176.75,30.412,17.371-1.235,34.87-3.382,52.344-6.29,47.473-7.778,92.824-9.9,138.133-22.154a294.089,294.089,0,0,0,50.183-18.544c123.6-59.827,220.086-167.639,244.416-289.171,7.021-34.99,8.564-70.462,10.153-106.147,1.679-36.417,3.639-72.955,11.707-109.137,14.138-63.148,55.283-132.406,124.2-156.656a159.024,159.024,0,0,1,31.746-7.584c26.232-3.5,52.791-.707,79.023.917,26.249,1.617,53.159,1.986,78-6.134a86.45,86.45,0,0,0,20.555-9.715c25.662-16.792,36.87-44.631,46.732-73.38,8.232-24.168,22.037-47.117,42.864-61.956,47.7-33.986,88.451-8.219,116.949,29.336,66.556,87.72,133.276,197.7,229.779,273.843,30.6,24.007,64.539,44.634,103.252,60.081,78.129,31.188,170.121,34.027,243.922.213,29.871-13.617,56.678-33.3,78.263-59.5C1927.6,772.913,1938.1,681.8,1976.335,603.362c23.686-48.777,53.737-95.817,92.221-135.444,19.38-19.966,40.826-37.506,62.334-54.734,24.482-19.761,49.057-38.864,70.928-60.493,90.005-89.542,122.948-222.88,86.187-341.238" transform="translate(334.813 144.219)" fill="none" stroke="rgba(255,255,255,0.53)" stroke-miterlimit="10" stroke-width="1"/>
          <path id="Path_83" data-name="Path 83" d="M-5.385,1379.926c57.261,27.573,120.737,36.394,185.08,33.3,17.971-.866,36-2.652,53.931-5.216,48.722-6.9,94.832-7.984,140.64-19.656a279.722,279.722,0,0,0,50.622-18.073c124.1-58.951,219.557-171.055,241.268-296.976,6.258-36.259,6.923-72.986,7.681-109.811.8-37.591,1.821-75.228,9.085-112.416,12.7-64.908,53.045-135.821,122.095-160.266a154.038,154.038,0,0,1,31.8-7.553c26.314-3.392,52.96-.259,79.331,1.74s53.489,2.78,78.6-5.065a86.649,86.649,0,0,0,20.789-9.518c25.905-16.484,37.345-44.365,47.588-73.214,8.561-24.2,23.054-47.106,44.669-61.823,49.569-33.748,91.992-6.587,121.067,33.151,68.584,93.08,131.725,206.552,228.182,283.878,30.446,24.337,64.359,45.1,103.192,60.509,78.326,31.088,170.945,32.943,244.672-2.3,29.795-14.207,56.465-34.506,77.8-61.359,54.814-68.782,63.555-161.244,101.145-240.031,23.376-49.084,53.429-96.209,92.513-135.639,19.682-19.861,41.578-37.212,63.667-54.232,25.15-19.451,50.556-38.344,73.316-59.93,93.759-89.186,131.444-225.268,96.817-346.411" transform="translate(337.574 146.653)" fill="none" stroke="rgba(255,255,255,0.53)" stroke-miterlimit="10" stroke-width="1"/>
          <path id="Path_84" data-name="Path 84" d="M-3.786,1388.266c77.039,35.7,164.684,42.2,248.932,32.039,68.371-8.247,130.934-5.278,194.209-34.765,124.6-58.069,219.026-174.465,238.114-304.774,11.11-75.84-1.112-153.566,11.671-229.17,12.9-76.306,62.833-160.34,151.857-171.4,26.393-3.28,53.129.187,79.634,2.562s53.822,3.572,79.2-4c41.627-12.421,56.343-46.614,69.467-82.368,8.891-24.222,24.068-47.094,46.473-61.69,51.431-33.5,95.388-4.86,125.186,36.966,92.363,129.654,166.772,290.537,329.717,354.848,110.2,43.5,249.407,27.663,322.763-68.026,54.012-70.46,60.993-164.273,97.943-243.41,23.065-49.392,53.121-96.6,92.8-135.831,42.733-42.251,96.288-72.637,140.7-113.1C2322.4,277.325,2364.822,138.5,2332.334,14.569" transform="translate(340.333 149.086)" fill="none" stroke="rgba(255,255,255,0.53)" stroke-miterlimit="10" stroke-width="1"/>
        </g>
      </g>
    </g>
  </g>
</svg>
