<svg xmlns="http://www.w3.org/2000/svg" width="53.5" height="53.5" viewBox="0 0 53.5 53.5">
  <path id="Path_97" data-name="Path 97" d="M36.75,10A26.75,26.75,0,1,0,63.5,36.75,26.738,26.738,0,0,0,36.75,10ZM21.263,32.526a4.224,4.224,0,1,1,4.224,4.224A4.236,4.236,0,0,1,21.263,32.526ZM50.688,48.154a17.53,17.53,0,0,1-27.876,0,1.509,1.509,0,0,1-.282-.845A1.412,1.412,0,0,1,23.938,45.9a1.279,1.279,0,0,1,1.126.563,14.825,14.825,0,0,0,23.371,0,1.47,1.47,0,0,1,1.126-.563,1.412,1.412,0,0,1,1.408,1.408A1.509,1.509,0,0,1,50.688,48.154Zm-2.675-11.4a4.224,4.224,0,1,1,4.224-4.224A4.236,4.236,0,0,1,48.013,36.75Z" transform="translate(-10 -10)" fill="#d5353f"/>
</svg>
