<svg xmlns="http://www.w3.org/2000/svg" width="44.565" height="44.565" viewBox="0 0 44.565 44.565">
  <path id="Path_98" data-name="Path 98" d="M27.966,21.864A1.931,1.931,0,0,0,29.932,19.9V15.966a1.966,1.966,0,0,0-3.932,0V19.9A1.931,1.931,0,0,0,27.966,21.864Z" transform="translate(-18.136 -14)" fill="#d5353f"/>
  <path id="Path_99" data-name="Path 99" d="M17.932,57.661H28.418V62.9H17.932Zm0-7.864H28.418v5.243H17.932Zm0-7.864H28.418v5.243H17.932Zm23.593,0v5.243H31.039V41.932Zm13.107,0v5.243H44.147V41.932Zm0,13.107H44.147V49.8H54.632Zm0,7.864H44.147V57.661H54.632ZM31.039,55.039V49.8H41.525v5.243Zm0,7.864V57.661H41.525V62.9ZM14,66.836H58.565V38H14Z" transform="translate(-14 -22.271)" fill="#d5353f"/>
  <path id="Path_100" data-name="Path 100" d="M65.966,21.864A1.931,1.931,0,0,0,67.932,19.9V15.966a1.966,1.966,0,1,0-3.932,0V19.9A1.931,1.931,0,0,0,65.966,21.864Z" transform="translate(-31.232 -14)" fill="#d5353f"/>
  <path id="Path_101" data-name="Path 101" d="M53.322,20v1.966a4.588,4.588,0,1,1-9.175,0V20H28.418v1.966a4.588,4.588,0,1,1-9.175,0V20H14v9.175H58.565V20Z" transform="translate(-14 -16.068)" fill="#d5353f"/>
</svg>
