<svg xmlns="http://www.w3.org/2000/svg" width="20.636" height="23.938" viewBox="0 0 20.636 23.938">
  <path id="Path_118" data-name="Path 118" d="M71.271,35.969H67.556V28.228l2.426,2.426A1.238,1.238,0,1,0,71.734,28.9l-4.54-4.54a1.238,1.238,0,0,0-1.751,0L60.9,28.9a1.238,1.238,0,0,0,1.751,1.751l2.426-2.426v7.742H61.365A5.372,5.372,0,0,0,56,41.335V46.7a1.238,1.238,0,0,0,2.476,0V41.335a2.892,2.892,0,0,1,2.889-2.889H65.08V46.7a1.238,1.238,0,0,0,2.476,0V38.445h3.715a2.892,2.892,0,0,1,2.889,2.889V46.7a1.238,1.238,0,0,0,2.476,0V41.335A5.372,5.372,0,0,0,71.271,35.969Z" transform="translate(-56 -24)" fill="#707070"/>
</svg>
