<svg id="CrossReference" xmlns="http://www.w3.org/2000/svg" width="28.43" height="28.43" viewBox="0 0 28.43 28.43">
  <g id="Group_14" data-name="Group 14">
    <path id="Path_120" data-name="Path 120" d="M17.661,0A10.788,10.788,0,0,0,7.424,7.424,10.769,10.769,0,1,0,21.006,21.006,10.769,10.769,0,0,0,17.661,0ZM10.769,25.846A8.183,8.183,0,0,1,6.9,10.452c0,.105,0,.211,0,.317A10.781,10.781,0,0,0,17.661,21.538c.106,0,.212,0,.317,0A8.191,8.191,0,0,1,10.769,25.846Zm10.764-7.868c0-.105,0-.211,0-.317A10.781,10.781,0,0,0,10.769,6.892c-.106,0-.212,0-.317,0A8.183,8.183,0,1,1,21.533,17.978Z" fill="#fff"/>
  </g>
</svg>
