<svg xmlns="http://www.w3.org/2000/svg" width="29.068" height="27.252" viewBox="0 0 29.068 27.252">
  <g id="_17634928821557996991" data-name="17634928821557996991" transform="translate(0 -15.989)">
    <path id="Path_107" data-name="Path 107" d="M269.626,100H256.908a.909.909,0,0,1-.908-.908V80.919a.909.909,0,0,1,.908-.908h12.717a.909.909,0,0,1,.908.908V99.087A.909.909,0,0,1,269.626,100Z" transform="translate(-241.466 -60.387)" fill="#fff"/>
    <g id="Group_9" data-name="Group 9" transform="translate(14.534 23.258)">
      <path id="Path_108" data-name="Path 108" d="M260.542,145.828h-3.633a.908.908,0,1,1,0-1.817h3.633a.908.908,0,0,1,0,1.817Z" transform="translate(-256 -144.011)" fill="#d5353f"/>
      <path id="Path_109" data-name="Path 109" d="M260.542,209.828h-3.633a.908.908,0,1,1,0-1.817h3.633a.908.908,0,0,1,0,1.817Z" transform="translate(-256 -204.378)" fill="#d5353f"/>
      <path id="Path_110" data-name="Path 110" d="M260.542,273.828h-3.633a.908.908,0,1,1,0-1.817h3.633a.908.908,0,0,1,0,1.817Z" transform="translate(-256 -264.744)" fill="#d5353f"/>
      <path id="Path_111" data-name="Path 111" d="M260.542,337.828h-3.633a.908.908,0,1,1,0-1.817h3.633a.908.908,0,0,1,0,1.817Z" transform="translate(-256 -325.111)" fill="#d5353f"/>
      <path id="Path_112" data-name="Path 112" d="M386.725,145.828h-1.817a.908.908,0,1,1,0-1.817h1.817a.908.908,0,0,1,0,1.817Z" transform="translate(-376.733 -144.011)" fill="#d5353f"/>
      <path id="Path_113" data-name="Path 113" d="M386.725,209.828h-1.817a.908.908,0,1,1,0-1.817h1.817a.908.908,0,0,1,0,1.817Z" transform="translate(-376.733 -204.378)" fill="#d5353f"/>
      <path id="Path_114" data-name="Path 114" d="M386.725,273.828h-1.817a.908.908,0,1,1,0-1.817h1.817a.908.908,0,0,1,0,1.817Z" transform="translate(-376.733 -264.744)" fill="#d5353f"/>
      <path id="Path_115" data-name="Path 115" d="M386.725,337.828h-1.817a.908.908,0,1,1,0-1.817h1.817a.908.908,0,0,1,0,1.817Z" transform="translate(-376.733 -325.111)" fill="#d5353f"/>
    </g>
    <path id="Path_116" data-name="Path 116" d="M16.022,16.2a.893.893,0,0,0-.747-.193L.741,18.732A.906.906,0,0,0,0,19.624V39.608a.907.907,0,0,0,.741.892l14.534,2.725a.855.855,0,0,0,.167.016.908.908,0,0,0,.908-.908V16.9A.906.906,0,0,0,16.022,16.2Z" transform="translate(0 0)" fill="#fff"/>
    <path id="Path_117" data-name="Path 117" d="M87.935,168.512l-2.872-3.283,2.9-3.735a.909.909,0,0,0-1.433-1.117l-2.691,3.459-2.267-2.591a.908.908,0,0,0-1.366,1.2l2.5,2.856-2.533,3.256a.909.909,0,0,0,1.435,1.115l2.316-2.979,2.642,3.018a.907.907,0,1,0,1.366-1.194Z" transform="translate(-75.443 -135.86)" fill="#d5353f"/>
  </g>
</svg>
