<svg xmlns="http://www.w3.org/2000/svg" width="22.362" height="25.592" viewBox="0 0 22.362 25.592">
  <g id="_8681331601536080157" data-name="8681331601536080157" transform="translate(-8.418 -5.908)">
    <path id="Path_106" data-name="Path 106" d="M19.449,32.5h0a1.555,1.555,0,0,1-.937-.316,2.322,2.322,0,0,1-1.08-2.172c.176-1.577,2.127-3.228,5.8-4.91A65.033,65.033,0,0,0,26.9,14.688c-.967-2.1-1.907-4.834-1.222-6.436a1.858,1.858,0,0,1,1.1-1.177,4.756,4.756,0,0,1,.984-.167c.488,0,.917.629,1.222,1.016.286.364.934,1.136-.361,6.59a30.958,30.958,0,0,0,4.929,7.326,18.848,18.848,0,0,1,3.253-.347c1.517,0,2.437.354,2.811,1.082a1.961,1.961,0,0,1-.378,2.093,2.575,2.575,0,0,1-2.151,1.154c-1.178,0-2.55-.744-4.08-2.214a46.42,46.42,0,0,0-8.553,2.734,27.489,27.489,0,0,1-2.309,4.118C21.153,31.851,20.3,32.5,19.449,32.5Zm2.579-4.966c-2.07,1.164-2.914,2.12-2.975,2.658-.01.089-.036.324.418.67C19.614,30.817,20.457,30.433,22.028,27.534Zm13.212-4.3c.79.607.982.915,1.5.915a1.461,1.461,0,0,0,1.172-.427,1.533,1.533,0,0,0,.223-.4c-.119-.063-.277-.191-1.138-.191A14.166,14.166,0,0,0,35.239,23.23ZM28,16.854a69.069,69.069,0,0,1-2.591,7.328A48.407,48.407,0,0,1,31.7,22.225,33.163,33.163,0,0,1,28,16.854Zm-.588-8.2a2.323,2.323,0,0,0,.093,3.116C28.427,9.722,27.456,8.642,27.414,8.656Z" transform="translate(-9 -1)" fill="#fff"/>
  </g>
</svg>
