<svg xmlns="http://www.w3.org/2000/svg" width="174.6" height="52.535" viewBox="0 0 174.6 52.535">
  <g id="layer1" transform="translate(-112.73 -262.474)">
    <path id="path2564" d="M138.743,296.18A92.2,92.2,0,0,0,184.6,308.327a91.009,91.009,0,0,0,34.991-7.143c1.712-.724,3.16,1.119,1.481,2.37-10.171,7.472-24.852,11.455-37.525,11.455a67.953,67.953,0,0,1-45.82-17.446c-.955-.856-.132-2.041,1.02-1.382Zm84.4-2.008c3.259-.037,5.925.593,6.452,1.284,1.119,1.35-.3,10.9-5.728,15.438-.823.691-1.646.329-1.251-.593,1.218-3.061,3.95-9.908,2.666-11.554-1.317-1.646-8.591-.79-11.85-.395-.988.132-1.152-.756-.263-1.382a18.139,18.139,0,0,1,9.974-2.8Zm-23.634-15.635c-3.917,0-8.032.823-8.032,5.431,0,2.337,1.185,3.917,3.259,3.917a4.391,4.391,0,0,0,3.753-2.469c1.053-1.876,1.02-3.621,1.02-5.727Zm-70.837,0c-3.917,0-8.032.823-8.032,5.431,0,2.337,1.185,3.917,3.259,3.917a4.39,4.39,0,0,0,3.753-2.469c1.053-1.876,1.02-3.621,1.02-5.727ZM248.785,268.4c-3.983,0-4.246,5.4-4.246,8.789s-.037,10.6,4.213,10.6c4.18,0,4.378-5.826,4.378-9.381a26.026,26.026,0,0,0-.79-7.34,3.424,3.424,0,0,0-3.555-2.666Zm-34.135-5.135h17.775a.977.977,0,0,1,1.02.988v3.39a5.809,5.809,0,0,1-1.317,2.5l-9.217,13.1a19.911,19.911,0,0,1,10.138,2.172,1.777,1.777,0,0,1,.922,1.547v4.213c0,.593-.625,1.284-1.284.922a20.393,20.393,0,0,0-18.763.037c-.625.329-1.284-.329-1.284-.922V287.2a5.083,5.083,0,0,1,.659-2.732l10.665-15.273h-9.283a.977.977,0,0,1-1.02-.988v-3.95a.97.97,0,0,1,.987-.988Zm34.1-.526c8,0,12.344,6.88,12.344,15.6,0,8.46-4.773,15.175-12.344,15.175-7.867,0-12.179-6.88-12.179-15.438,0-8.624,4.345-15.339,12.179-15.339Zm30.876,0A7.116,7.116,0,0,1,285.915,266c1.415,2.205,1.415,5.958,1.415,8.624v17.446a1.031,1.031,0,0,1-1.02.856h-5.431a1.023,1.023,0,0,1-.954-.856V277.023c0-3.028.362-7.472-3.39-7.472a3.582,3.582,0,0,0-3.127,2.205,12.416,12.416,0,0,0-.856,5.267v14.911a1.006,1.006,0,0,1-1.053.988h-5.365a1.015,1.015,0,0,1-.987-.988V264.219a1.01,1.01,0,0,1,1.02-.889H271.2a1.031,1.031,0,0,1,.954.757v4.246h.1c1.514-3.785,3.621-5.6,7.373-5.6Zm-122.846,0c3.358,0,5.5,1.646,7.011,5.135a7.991,7.991,0,0,1,13.726-2.107c1.712,2.337,1.35,5.728,1.35,8.69v17.479a1.006,1.006,0,0,1-1.053.988h-5.4a1.01,1.01,0,0,1-.955-.988V277.254a34.1,34.1,0,0,0-.164-5.2c-.395-1.843-1.613-2.37-3.16-2.37a3.6,3.6,0,0,0-3.259,2.271,17.507,17.507,0,0,0-.494,5.3v14.681a1.006,1.006,0,0,1-1.053.987h-5.4a1.01,1.01,0,0,1-.955-.987V277.253c0-3.094.494-7.637-3.325-7.637-3.884,0-3.753,4.444-3.753,7.637v14.681a1,1,0,0,1-1.02.987h-5.431A1.027,1.027,0,0,1,142.5,292V264.317a1.006,1.006,0,0,1,1.053-.988h5.036a1.033,1.033,0,0,1,.987.922v3.621h.1c1.317-3.489,3.786-5.135,7.11-5.135Zm39.8-.263c2.633,0,6.057.691,8.131,2.666,2.633,2.469,2.37,5.728,2.37,9.315v8.394c0,2.535,1.053,3.654,2.041,5,.362.494.428,1.086,0,1.415-1.119.955-3.094,2.633-4.148,3.588h-.037a1.144,1.144,0,0,1-1.284.132,13.473,13.473,0,0,1-3.094-3.588c-2.962,3-5.036,3.917-8.888,3.917-4.575,0-8.1-2.8-8.1-8.427a9.185,9.185,0,0,1,5.76-8.822c2.93-1.284,7.044-1.514,10.171-1.843V273.5c0-1.284.1-2.8-.659-3.917a3.635,3.635,0,0,0-3.028-1.382,4.093,4.093,0,0,0-4.345,3.226c-.1.494-.461.988-.955.988l-5.234-.56a.946.946,0,0,1-.79-1.119c1.185-6.353,6.913-8.262,12.08-8.262Zm-70.837,0c2.633,0,6.057.691,8.13,2.666,2.633,2.469,2.37,5.728,2.37,9.315v8.394c0,2.535,1.053,3.654,2.041,5,.362.494.428,1.086-.037,1.415-1.086.955-3.061,2.633-4.115,3.588h-.037a1.144,1.144,0,0,1-1.284.132,13.473,13.473,0,0,1-3.094-3.588c-2.962,3-5.069,3.917-8.888,3.917-4.575,0-8.1-2.8-8.1-8.427a9.185,9.185,0,0,1,5.76-8.822c2.93-1.284,7.044-1.514,10.171-1.843V273.5c0-1.284.1-2.8-.658-3.917a3.635,3.635,0,0,0-3.028-1.382,4.093,4.093,0,0,0-4.345,3.226c-.1.494-.461.988-.955.988l-5.234-.56a.946.946,0,0,1-.79-1.119c1.185-6.353,6.913-8.262,12.08-8.262Z" transform="translate(0 0)" fill="#fff" fill-rule="evenodd"/>
  </g>
</svg>
